<svg version="1.1" id="Layer_1" xmlns="http://www.w3.org/2000/svg" xmlns:xlink="http://www.w3.org/1999/xlink" x="0px" y="0px"
	 width="100%" viewBox="0 0 1024 1024" enable-background="new 0 0 1024 1024" xml:space="preserve">
<path fill="#000000" opacity="1.000000" stroke="none" 
	d="
M823.076904,687.060364 
	C824.164490,694.920959 816.374451,706.018188 808.815979,708.179321 
	C805.727356,709.062500 805.752930,711.717163 807.929565,713.982727 
	C811.854004,718.067383 815.886719,722.048218 819.805786,726.138000 
	C828.437683,735.145935 837.113403,744.114746 845.571594,753.283813 
	C847.628540,755.513733 850.245239,756.385620 852.698303,757.704407 
	C859.106628,761.149658 862.607727,770.513000 859.819031,777.015686 
	C856.262939,785.307800 847.635864,789.285217 839.753052,786.291077 
	C836.412781,785.022400 833.452881,782.769897 833.270325,779.301941 
	C832.603638,766.634338 823.328369,759.276001 816.082092,750.808594 
	C807.830811,741.166687 797.777588,733.095215 787.314697,726.280334 
	C779.569824,721.235901 772.906006,715.494080 766.682495,709.001221 
	C754.252808,696.033569 742.057251,682.841675 729.685486,669.817993 
	C727.168701,667.168579 724.423279,664.698303 721.558044,662.429871 
	C719.118225,660.498230 716.147827,660.189636 713.817932,662.480774 
	C711.364746,664.893250 711.856384,667.678833 714.299561,669.945679 
	C723.677124,678.646606 733.023560,687.385681 742.610779,695.851013 
	C743.954041,697.037109 744.490540,698.474915 745.515381,699.708374 
	C755.637207,711.889221 766.661743,723.153076 778.276794,733.940369 
	C786.691345,741.755005 795.807617,749.220154 800.708374,760.540283 
	C797.753784,761.294922 795.330383,760.316040 793.588074,758.238342 
	C780.156128,742.221924 762.615845,730.458801 748.814148,714.825500 
	C737.892578,702.454651 726.300781,690.731018 714.015320,679.706177 
	C712.161621,678.042664 710.201233,676.481018 708.177185,675.029785 
	C706.515137,673.838257 704.698792,672.801331 702.930725,675.008362 
	C701.426392,676.886169 700.896240,678.833740 702.454529,680.927307 
	C703.148926,681.860229 703.823059,682.857178 704.697754,683.599670 
	C717.532837,694.494263 728.721802,707.002136 740.286987,719.180603 
	C754.849670,734.515625 768.592896,750.541504 782.437500,766.494995 
	C783.419373,767.626404 784.217529,769.035583 785.419739,769.838440 
	C794.544006,775.931763 800.985291,784.676819 808.163086,792.683655 
	C810.540588,795.335754 813.218323,796.554016 816.839783,796.778503 
	C827.924011,797.465576 834.160767,806.265625 831.147034,816.512878 
	C829.015991,823.758789 819.966858,828.065552 811.997559,825.626709 
	C805.110840,823.519165 800.385376,815.084229 803.341797,808.466492 
	C805.644409,803.312378 803.530518,800.524658 800.382263,797.125244 
	C787.733093,783.466797 775.034729,769.841125 762.808350,755.807922 
	C753.074402,744.635437 742.819031,733.976562 732.793945,723.091675 
	C722.969116,712.424255 712.972412,701.983521 702.425964,692.048950 
	C701.576904,691.249207 700.765259,690.407898 699.890137,689.638245 
	C697.771851,687.775574 695.218689,687.066406 693.184448,689.183350 
	C691.000366,691.456116 691.728638,694.112671 693.892212,696.268799 
	C700.258667,702.613220 706.849670,708.746643 712.977539,715.312866 
	C722.632202,725.658081 732.375244,735.885010 742.751709,745.529053 
	C748.341431,750.724121 751.721619,757.940674 757.757996,762.865234 
	C764.221313,768.138000 768.428162,775.859436 776.317017,779.889343 
	C771.322510,780.047668 766.513855,779.301819 763.050964,776.138000 
	C751.916077,765.964783 740.898254,755.638428 730.291687,744.919434 
	C719.764465,734.280640 709.883484,723.005371 699.526367,712.193787 
	C695.507385,707.998474 691.009277,704.252747 686.619141,700.428955 
	C685.534485,699.484131 684.084839,698.713684 682.687134,698.426025 
	C680.095764,697.892761 678.209229,699.269531 676.925720,701.469727 
	C675.551086,703.826050 676.638672,705.666931 678.362061,707.201538 
	C685.067932,713.172974 691.915283,718.959961 697.943726,725.683594 
	C709.925537,739.046875 723.145874,751.199524 736.022400,763.675415 
	C745.242798,772.609009 753.266602,782.568787 761.739319,792.147827 
	C762.727844,793.265503 763.911255,794.298706 762.902039,796.134399 
	C762.441040,796.101074 761.838867,796.246094 761.539795,796.008972 
	C743.431213,781.652954 726.355103,766.230591 710.404846,749.432800 
	C697.825073,736.184692 685.719177,722.306458 670.643738,711.595337 
	C667.600464,709.433105 665.229736,708.496155 662.639648,711.971619 
	C660.312439,715.094238 659.721130,717.664795 663.528137,720.301331 
	C675.550110,728.627136 684.033997,740.621460 694.492737,750.578308 
	C695.453491,751.492920 696.208801,752.637573 697.221436,753.481079 
	C708.984741,763.280029 719.345825,774.515442 730.236450,785.220154 
	C738.872192,793.708374 748.760925,800.912292 756.438721,810.439514 
	C757.451904,811.696838 759.022644,813.125122 760.750183,812.288696 
	C765.745850,809.870300 770.785461,810.587646 775.908386,811.465759 
	C777.686218,811.770447 779.407837,810.177124 781.672485,811.382690 
	C779.851624,813.268921 780.875793,815.038025 781.715210,817.114502 
	C786.370605,828.631958 780.414062,838.791199 768.406250,840.132568 
	C760.620117,841.002441 754.200500,835.784363 754.778931,828.004639 
	C755.262817,821.496704 752.977661,817.345154 748.268372,813.016296 
	C727.686951,794.097412 707.319031,774.935547 687.263733,755.460144 
	C677.732361,746.204468 669.617065,735.530334 659.218933,727.085999 
	C651.262024,720.624146 651.167603,720.224121 642.381897,725.261414 
	C627.062134,734.044861 611.572021,742.391907 594.687866,747.820557 
	C589.772888,749.400940 589.273071,753.454102 589.497559,757.491211 
	C591.071838,785.801880 589.986511,814.131042 590.177795,842.449463 
	C590.208191,846.950134 591.193604,850.525696 594.775879,853.379822 
	C598.778809,856.569031 601.590759,860.900757 605.934814,863.945740 
	C612.747192,868.721069 614.358032,877.775574 610.490479,883.887695 
	C605.716064,891.432922 600.686157,893.229736 591.373169,887.971008 
	C584.682190,884.192993 583.805603,875.490295 588.814636,868.768799 
	C593.054443,863.079529 593.255188,862.856689 588.001038,858.120972 
	C582.989197,853.603638 581.651001,848.360229 581.482788,841.707642 
	C580.780090,813.912231 582.579163,786.104675 580.871399,758.317261 
	C580.607666,754.025940 578.958374,752.611206 574.993896,753.331116 
	C573.196899,753.657410 571.430542,754.195984 569.623230,754.413147 
	C565.275085,754.935791 564.097656,757.416077 563.974060,761.599854 
	C563.181702,788.419678 562.866150,815.240051 563.282532,842.067322 
	C563.538513,858.559082 563.940430,875.048645 564.199524,891.540405 
	C564.244080,894.378418 564.786438,896.412537 567.595337,898.079163 
	C574.394165,902.113037 576.345520,910.962341 572.389648,917.733521 
	C568.614014,924.196289 558.935364,927.326599 552.796326,924.070496 
	C546.155090,920.548035 543.110718,911.086121 546.448486,904.172791 
	C547.022156,902.984619 547.596130,901.468567 548.617432,900.877563 
	C555.591614,896.842712 554.716431,890.207397 554.710327,883.729858 
	C554.673889,844.898010 554.702087,806.066101 554.706665,767.234253 
	C554.706726,766.234497 554.713318,765.233276 554.665527,764.235168 
	C554.517151,761.138428 552.487061,759.795227 549.771240,759.574768 
	C547.227478,759.368225 545.855164,761.009460 545.283203,763.392517 
	C544.419861,766.989563 544.353882,770.644348 544.341553,774.318542 
	C544.253967,800.476013 543.681824,826.622559 542.333557,852.746826 
	C542.212830,855.086365 542.733093,858.813843 539.495605,858.793396 
	C535.874146,858.770508 535.870422,854.963013 535.848633,852.177490 
	C535.740356,838.347595 535.631165,824.515198 535.780457,810.686523 
	C535.926086,797.197815 536.388123,783.712646 536.697754,770.225586 
	C536.732178,768.726868 536.681458,767.226135 536.666382,765.726379 
	C536.640137,763.118042 535.333069,761.578064 532.721375,761.586731 
	C530.172241,761.595154 529.420410,763.404114 529.304626,765.641602 
	C528.926331,772.955139 528.512634,780.266907 528.147827,787.581055 
	C527.973389,791.078186 527.768982,794.550842 525.403625,797.926758 
	C522.970947,795.681946 523.018921,792.841064 522.949829,790.171997 
	C522.768799,783.175781 522.767517,776.175049 522.670776,769.176331 
	C522.640198,766.961304 522.399353,764.752625 520.175781,763.557068 
	C516.631226,761.651245 513.368408,763.805664 513.399536,768.309875 
	C513.496216,782.299622 513.866333,796.287415 513.966492,810.277161 
	C514.149048,835.774902 514.294800,861.273560 514.247253,886.771545 
	C514.239441,890.977112 515.287476,893.744629 518.944092,896.282959 
	C525.992371,901.175659 527.424500,910.614380 522.772888,917.035889 
	C518.103699,923.481506 507.887482,925.442505 501.253082,921.166443 
	C492.622742,915.603882 493.130920,901.055237 502.424896,895.347839 
	C505.008759,893.761169 505.712799,892.106262 505.705078,889.379028 
	C505.632355,863.713562 506.014435,838.040039 505.479797,812.385193 
	C505.181305,798.062866 504.759308,783.739075 504.803284,769.414978 
	C504.819000,764.298218 502.219147,763.355286 497.944061,763.190979 
	C493.397766,763.016296 492.490723,765.166870 492.247589,769.234497 
	C490.406433,800.033081 491.497314,830.859619 491.146576,861.670410 
	C491.104431,865.370605 490.502716,868.969299 489.808228,872.561462 
	C489.504272,874.133606 489.234161,876.179749 487.066284,876.192688 
	C484.786072,876.206299 484.756104,874.157593 484.532654,872.537415 
	C483.165192,862.621643 483.196350,852.615356 483.007721,842.650635 
	C482.544159,818.162842 482.366058,793.670532 483.603516,769.186829 
	C483.958710,762.158936 479.572815,759.136597 472.755432,760.945435 
	C470.642365,761.506104 470.297394,762.881287 470.291229,764.673950 
	C470.217896,785.994080 469.442505,807.303589 469.682953,828.632996 
	C469.836823,842.280762 469.339691,855.949402 468.688690,869.587463 
	C468.314789,877.420410 468.479004,885.244507 468.199066,893.065552 
	C468.089630,896.123352 470.401855,897.346130 472.011108,899.148010 
	C477.428741,905.214233 477.270874,913.463684 471.593140,920.041260 
	C466.798309,925.596130 458.452332,926.928101 452.595367,922.949951 
	C447.460327,919.462036 446.109253,914.265015 446.706696,908.467957 
	C447.260956,903.090088 449.277496,898.260681 454.545685,896.010803 
	C457.018433,894.954834 457.723694,893.633850 457.897736,891.235657 
	C460.999542,848.491821 461.053741,805.684509 460.706879,762.865967 
	C460.681000,759.674011 459.475830,757.905151 456.261719,757.344055 
	C453.321014,756.830566 450.434570,756.008789 447.520813,755.337524 
	C440.822083,753.794434 439.894867,754.520203 439.945343,761.281372 
	C440.049835,775.278931 440.216309,789.276367 440.254425,803.274109 
	C440.290314,816.439575 440.095093,829.606140 440.195587,842.770813 
	C440.249390,849.814453 438.342957,855.558167 431.539368,858.826233 
	C427.871490,860.588074 427.600525,862.637878 430.011047,866.214294 
	C436.013275,875.119629 435.645538,880.700928 429.597656,886.267578 
	C425.310150,890.213806 420.145264,891.619629 414.795013,889.726196 
	C409.909119,887.996887 407.296204,883.723145 406.739319,878.555847 
	C406.090057,872.531555 407.490387,866.865356 413.097351,863.888977 
	C418.881104,860.818665 422.913666,855.942383 427.580231,851.739502 
	C430.655823,848.969482 431.586548,844.755920 431.573303,840.757141 
	C431.481659,813.127197 431.919830,785.490051 430.646393,757.871582 
	C430.415161,752.856567 428.633942,749.848572 423.374847,748.110291 
	C404.617279,741.910461 387.249634,732.733521 370.823486,721.806519 
	C367.394653,719.525574 365.018311,719.393555 361.823639,722.571167 
	C339.393616,744.880981 316.775879,767.002319 294.177338,789.142212 
	C284.904755,798.226685 275.997681,807.698914 266.089905,816.114624 
	C263.129669,818.629028 264.436584,821.549988 264.775665,824.415955 
	C265.450500,830.119141 263.168762,834.409058 258.672241,837.741882 
	C254.347214,840.947632 249.735641,841.198486 245.006790,838.956970 
	C238.677338,835.956726 235.718384,827.565308 238.338287,820.494812 
	C241.265228,812.595703 248.269897,808.245789 255.480972,810.391174 
	C258.627808,811.327332 260.878632,810.943115 263.126587,808.737061 
	C269.656036,802.329529 276.216858,795.953552 282.809814,789.611328 
	C300.053833,773.023071 316.190155,755.324646 333.744049,739.038452 
	C340.696381,732.588257 347.095123,725.534546 353.629364,718.645081 
	C355.325104,716.857178 358.062744,715.048279 355.097900,711.994934 
	C351.332611,708.117310 347.337921,707.136047 344.390564,709.925659 
	C338.225372,715.761047 332.185822,721.732178 326.182800,727.735657 
	C314.066925,739.852600 301.980804,751.999634 289.939514,764.190613 
	C282.864807,771.353271 274.887085,777.659729 269.300171,786.695496 
	C266.271729,783.988098 266.022034,781.529053 267.681274,778.534363 
	C271.201630,772.180481 276.278473,767.138123 281.337769,762.090759 
	C299.726379,743.745300 318.213226,725.497681 336.493378,707.045166 
	C338.272095,705.249695 342.665375,703.318970 338.565491,699.485046 
	C335.069183,696.215637 331.972046,696.145447 328.130035,699.897217 
	C316.452606,711.300598 305.065643,723.006409 293.239502,734.251587 
	C275.031525,751.565002 257.334686,769.447632 237.926910,785.447449 
	C235.356400,787.566528 232.221115,789.407654 229.146942,790.913391 
	C223.547607,793.656006 220.478027,799.668640 214.183502,801.653503 
	C211.564117,802.479431 210.074463,805.194214 211.017624,809.010132 
	C212.520020,815.088379 210.769852,820.654175 205.271744,824.355469 
	C199.685837,828.115784 193.808212,827.362793 188.192245,824.547729 
	C182.847198,821.868530 180.794571,812.822388 183.547226,805.675354 
	C186.134674,798.957275 189.302963,796.419067 196.248886,796.794312 
	C201.529343,797.079529 204.641632,795.103577 208.460434,791.293884 
	C214.730942,785.038452 216.996414,776.467224 222.796219,770.208496 
	C233.086182,759.104126 243.507156,748.120789 253.907455,737.119080 
	C272.210632,717.757324 290.502441,698.381714 309.885132,680.082031 
	C313.044098,677.099609 313.453705,674.365173 310.329193,671.153320 
	C306.977509,667.707886 304.174469,669.417480 301.911591,672.211731 
	C291.725983,684.789246 279.660522,695.594055 268.606506,707.341919 
	C256.434448,720.278015 244.102173,733.188782 230.542679,744.764832 
	C226.544250,748.178284 222.906265,751.710266 221.596390,757.388245 
	C218.133987,756.600281 215.240219,757.922241 212.174591,759.436646 
	C217.193466,752.444824 219.796692,744.219604 226.554901,738.264099 
	C243.063034,723.716858 257.386566,706.950012 272.709778,691.194031 
	C281.300934,682.360168 289.833069,673.467896 298.511047,664.720215 
	C301.133240,662.076904 301.158539,659.696167 299.073578,656.806580 
	C296.109924,652.699097 294.520325,652.525757 290.760498,656.143127 
	C279.491760,666.984802 269.384888,678.942139 257.528564,689.272644 
	C249.977203,695.852051 244.092438,704.341248 238.320877,712.657349 
	C237.247147,714.204529 235.939423,715.396545 234.599854,716.638794 
	C231.328232,719.672729 227.913498,722.448608 225.530457,726.472900 
	C223.871490,729.274353 221.340775,731.871216 217.336426,732.221619 
	C213.171921,732.586060 210.343155,735.426453 208.658310,739.011597 
	C206.385773,743.847229 203.044464,747.603760 198.749542,750.644409 
	C194.338745,753.766846 191.334656,758.278442 187.583633,762.053833 
	C184.934006,764.720764 187.054337,767.414368 187.713257,769.992004 
	C190.012680,778.986938 183.407059,788.203125 174.595947,788.100647 
	C167.879364,788.022461 161.287796,783.820557 158.964569,778.239441 
	C156.114365,771.392212 158.104919,764.894958 163.386322,761.145752 
	C171.509354,755.379089 177.070816,747.233337 184.665131,741.042542 
	C194.096466,733.354309 201.165588,723.186401 210.122925,714.981018 
	C225.048691,701.308411 236.353241,684.347412 250.904938,670.427551 
	C260.879700,660.885925 269.601105,650.032043 280.727295,641.694641 
	C283.954315,639.276428 285.015808,636.451904 282.933533,632.622314 
	C279.119080,625.607117 275.382294,618.544861 271.811523,611.403015 
	C265.447723,598.674927 261.446869,585.080627 257.776642,571.409058 
	C256.594635,567.006042 254.555527,565.120422 249.836655,565.150635 
	C222.857178,565.323608 195.897064,563.623474 168.908875,564.185974 
	C166.882690,564.228271 165.148483,564.713623 163.278091,565.701965 
	C156.565247,569.249146 153.638306,567.361328 153.947723,560.032593 
	C153.982880,559.200012 153.941086,558.354004 154.077225,557.537903 
	C154.443924,555.339355 153.683929,552.457825 156.476425,551.488098 
	C159.007172,550.609131 160.955933,552.293579 162.470383,554.161194 
	C164.147247,556.229187 166.439850,556.625183 168.775116,556.522888 
	C187.423996,555.705994 206.058990,557.173462 224.704681,556.790222 
	C231.868607,556.642944 239.039795,556.582581 246.202393,556.733398 
	C250.654541,556.827148 252.073441,554.888489 251.694565,550.632751 
	C250.968048,542.471802 249.734665,541.240173 242.239395,541.331543 
	C218.262970,541.623962 194.297729,540.985168 170.342514,540.091675 
	C163.930130,539.852417 157.280975,541.142883 151.193085,537.895935 
	C150.640549,537.601257 150.104462,537.275818 148.713760,536.479797 
	C158.398239,533.961487 167.522034,534.106812 176.466553,533.906067 
	C197.929718,533.424377 219.409637,533.725952 240.882202,533.604675 
	C247.936279,533.564819 249.022598,532.115112 248.735184,525.308350 
	C248.592453,521.928406 247.045792,520.413086 243.861221,520.335938 
	C240.696442,520.259216 237.525253,520.389587 234.363235,520.265991 
	C206.906494,519.192444 179.437927,519.280396 151.968246,519.238586 
	C147.657700,519.231995 144.643082,520.036194 141.957382,523.937744 
	C137.311081,530.687561 130.666901,531.317627 123.245171,528.289124 
	C115.852859,525.272705 113.012497,517.704712 115.021652,509.385010 
	C116.710602,502.391266 123.001610,497.240173 129.876709,497.698425 
	C135.740860,498.089294 140.557388,500.560638 142.480820,506.587219 
	C143.520767,509.845520 145.425598,510.824677 148.739380,510.855499 
	C165.897934,511.015137 183.072876,511.005676 200.205826,511.819183 
	C214.025436,512.475342 227.828445,512.726135 241.650696,512.687683 
	C244.241089,512.680481 246.642075,512.533936 247.974106,509.748077 
	C250.323639,504.834229 248.184845,501.266571 242.658630,501.146667 
	C219.877365,500.652374 197.082764,500.499207 174.319611,499.570190 
	C164.260605,499.159668 154.261185,497.226746 144.245865,495.900787 
	C143.169235,495.758240 142.167297,495.051727 141.030075,494.563599 
	C142.297409,492.157379 144.360062,492.834839 145.999832,492.831909 
	C168.991013,492.790649 191.981674,492.339020 214.969513,493.489410 
	C224.255203,493.954132 233.585144,493.585724 242.894165,493.505341 
	C246.255753,493.476318 248.662155,492.291107 248.746399,488.280212 
	C248.831711,484.218201 246.150391,484.259247 243.374161,484.243561 
	C212.412186,484.068634 181.495911,481.779144 150.516678,482.250275 
	C146.824158,482.306427 144.028717,482.854767 141.487091,486.082031 
	C137.480804,491.169159 131.795135,491.999115 126.247406,489.275269 
	C120.618240,486.511444 116.795341,479.318512 117.897202,473.563965 
	C119.182289,466.852509 123.828918,462.442169 130.330872,461.762634 
	C136.240128,461.145020 142.302460,464.403015 144.109650,470.252014 
	C145.531097,474.852509 147.973343,475.712341 152.393372,475.814636 
	C171.359711,476.253387 190.312576,477.239563 209.276199,477.842590 
	C221.100327,478.218567 232.914276,477.510956 244.726959,476.986694 
	C247.890228,476.846283 249.755356,475.798279 249.827484,472.325836 
	C249.903793,468.652771 247.424667,468.346436 244.812637,468.337402 
	C221.316284,468.256134 197.819351,468.140625 174.323730,468.258331 
	C170.590714,468.277008 166.682175,468.582977 163.440521,471.188599 
	C161.670227,472.611481 159.564713,472.254578 157.889572,470.873291 
	C156.494995,469.723358 155.158585,468.379089 154.185349,466.870056 
	C152.601334,464.413910 150.125336,461.582581 152.641876,458.772003 
	C154.870789,456.282654 158.110580,456.971405 160.984634,458.421814 
	C163.118256,459.498596 165.415985,459.759735 167.781174,459.755951 
	C180.612778,459.735535 193.446198,459.623260 206.275055,459.811432 
	C210.631012,459.875305 212.167343,458.262878 212.099701,453.956299 
	C211.921753,442.627838 210.597031,431.357635 210.825211,420.001068 
	C211.086029,407.019257 210.758026,394.026489 210.827438,381.039215 
	C210.842010,378.310913 209.532715,374.238922 214.235641,374.171967 
	C218.330383,374.113586 217.795624,377.889923 218.043900,380.570526 
	C220.264679,404.546753 218.743713,428.483673 217.223984,452.421875 
	C216.764557,459.658752 216.861221,459.712494 224.088715,459.751953 
	C231.588242,459.792877 239.091766,459.627838 246.586365,459.825348 
	C250.413483,459.926208 252.356491,458.474518 253.233154,454.723297 
	C256.906281,439.005737 261.057251,423.412689 266.844330,408.316803 
	C270.958923,397.583649 275.119781,386.838501 281.031952,376.937775 
	C283.525360,372.762207 283.115906,369.772003 279.522552,366.486053 
	C255.172836,344.219391 232.628662,320.118317 209.301407,296.815796 
	C198.241409,285.767517 187.614380,274.219482 177.797119,261.994415 
	C176.187408,259.989899 174.461227,258.522369 171.625458,258.308319 
	C162.899094,257.649780 158.846008,253.858871 158.059753,246.050537 
	C157.305450,238.559586 162.077087,231.179596 169.138367,228.915939 
	C174.964752,227.048157 180.589508,228.406647 183.692520,232.431091 
	C188.067154,238.104782 189.149551,246.111237 185.478607,250.933655 
	C182.551331,254.779160 183.541107,257.174683 186.510849,260.332123 
	C194.833267,269.180481 202.982849,278.204254 210.884415,287.429626 
	C214.282715,291.397278 218.403030,294.493378 222.025208,298.163757 
	C241.670059,318.070221 261.351166,337.940918 281.020203,357.823486 
	C281.840485,358.652710 282.634613,359.510864 283.493896,360.297729 
	C285.717590,362.334045 287.952667,364.095032 290.626892,360.833527 
	C292.828217,358.148804 293.328247,355.851562 290.394348,353.094177 
	C284.085052,347.164642 278.335358,340.617645 271.834167,334.919464 
	C262.167603,326.446777 254.167557,316.399292 244.909744,307.531982 
	C233.263565,296.377106 222.371582,284.433594 211.198929,272.787445 
	C210.221802,271.768921 208.870071,270.826477 209.064514,268.908661 
	C217.327744,271.704956 224.088684,276.793060 230.190735,282.621796 
	C242.355240,294.241394 254.744720,305.700684 266.022125,318.149414 
	C274.657684,327.681915 284.554749,335.870483 293.054138,345.475830 
	C294.371826,346.964935 295.656464,348.525513 297.561890,349.318390 
	C303.339996,345.475037 303.916321,343.194305 299.441406,338.428650 
	C290.553345,328.963135 280.969635,320.120819 272.459412,310.337250 
	C258.224182,293.972015 241.206863,280.454590 226.555908,264.496552 
	C221.950851,259.480652 218.534576,254.729080 216.979355,248.375168 
	C219.004364,247.103027 221.085876,246.968674 221.700424,248.665634 
	C224.572769,256.597137 231.801865,260.505066 237.418243,265.715118 
	C254.744629,281.788025 271.349304,298.554657 287.814758,315.491302 
	C293.255188,321.087433 299.395172,326.010101 304.308167,332.154083 
	C305.687225,333.878662 307.213928,335.864014 309.577362,333.583923 
	C311.747192,331.490662 314.133484,329.242340 311.238708,325.961121 
	C303.745209,317.467163 296.206787,309.049072 287.957184,301.229767 
	C276.625793,290.489441 265.984894,279.023315 254.739899,268.188049 
	C246.968094,260.699463 240.064453,252.310760 231.222977,245.900040 
	C225.798386,241.966812 222.066040,236.244431 217.610275,231.304352 
	C212.578064,225.725159 207.064453,220.656265 201.835678,215.292572 
	C199.806473,213.211029 197.558548,213.154510 194.987518,213.313263 
	C187.870834,213.752625 182.655701,210.949417 180.828873,205.868851 
	C178.357361,198.995300 179.919235,192.419006 185.034378,188.161392 
	C190.190933,183.869308 197.186951,183.333221 202.698120,186.807861 
	C208.331223,190.359375 211.216705,196.905457 208.874573,203.243149 
	C207.378082,207.292557 208.603821,209.394775 211.143921,212.327805 
	C217.899673,220.128632 225.647583,227.016861 231.846756,235.342072 
	C234.193985,238.494308 237.523087,240.932648 240.485779,243.606476 
	C255.705063,257.341827 268.817627,273.144440 283.479462,287.414551 
	C294.330963,297.976166 305.832306,307.878998 315.576233,319.539398 
	C317.825775,322.231384 319.778259,322.647614 322.561584,320.014984 
	C325.275299,317.448181 325.878998,315.374268 323.089142,312.522980 
	C311.918335,301.106232 300.769592,289.666565 289.727020,278.125977 
	C269.950012,257.457062 249.055099,237.773514 232.838257,213.943665 
	C231.927155,212.604874 230.768890,211.434280 229.453888,209.860031 
	C232.699020,208.244278 235.329407,208.043976 237.703201,210.704971 
	C244.884277,218.754837 251.588928,227.302536 259.360840,234.734268 
	C269.344360,244.280792 277.058777,255.795227 287.007080,265.279633 
	C294.375977,272.304901 301.389038,279.657166 308.114716,287.263367 
	C314.756134,294.774231 323.184448,300.383850 329.551453,308.178467 
	C332.207642,311.430176 334.634827,308.452332 336.822052,306.886169 
	C339.417053,305.028015 339.430664,302.700928 337.314148,300.506836 
	C332.227539,295.233734 326.945862,290.147034 321.910706,284.826355 
	C306.339630,268.372345 290.309235,252.384766 274.135712,236.521271 
	C265.362762,227.916489 257.488342,218.370316 249.503601,208.997452 
	C245.207855,203.954880 242.494064,197.784149 238.347977,192.507828 
	C233.253906,186.025116 236.014694,174.480026 242.754272,170.365067 
	C249.920670,165.989502 260.020752,168.841965 264.478455,176.445786 
	C265.527283,178.234818 266.227356,179.979523 265.653656,182.113205 
	C264.565643,186.159805 266.737701,188.876709 269.143097,191.907898 
	C280.910736,206.737183 296.464996,217.723740 308.994873,231.815720 
	C323.582153,248.221573 339.356598,263.526489 355.575562,278.345123 
	C356.308807,279.015045 356.902771,279.837952 357.557037,280.593597 
	C363.032104,286.917084 362.941803,286.755219 370.133728,282.764038 
	C386.891327,273.464355 403.850830,264.583405 422.257355,258.843750 
	C429.598236,256.554688 430.639618,255.104019 430.652588,247.364075 
	C430.697327,220.699432 430.678162,194.034683 430.660065,167.369965 
	C430.653839,158.206863 429.614532,157.173294 419.935730,156.367828 
	C411.900208,155.699127 408.756927,153.085266 407.024994,145.631668 
	C405.622101,139.594193 408.607788,132.467331 413.721619,129.646667 
	C418.675507,126.914246 424.420013,126.793106 427.775421,130.105499 
	C432.302826,134.574844 435.164703,139.974701 433.906006,146.696075 
	C433.639313,148.120102 433.002472,149.474823 432.323395,151.494217 
	C439.376465,152.982681 439.147614,158.224609 439.393646,163.638138 
	C440.642548,191.117752 440.366760,218.606964 440.139771,246.094559 
	C440.100739,250.819153 441.795288,252.138184 446.398529,251.695160 
	C460.484589,250.339523 460.370087,250.473526 461.057983,236.743881 
	C462.702087,203.928619 460.434174,171.134872 460.725922,138.330643 
	C460.759918,134.511017 458.505951,133.262711 455.791290,131.736298 
	C446.067963,126.269051 444.761444,113.154320 453.168152,106.065842 
	C458.026306,101.969521 463.299225,101.758537 469.025116,104.266762 
	C474.571533,106.696388 477.020874,110.917473 477.361908,116.751266 
	C477.675110,122.108658 477.220154,126.978996 472.226990,130.461105 
	C469.527313,132.343781 469.373871,135.670715 469.473022,138.684723 
	C470.595947,172.819641 470.342041,206.964676 470.352631,241.108353 
	C470.353394,243.573563 469.426270,246.647949 473.834534,246.814484 
	C480.192993,247.054703 482.851990,245.794388 483.556213,241.527100 
	C483.610199,241.199905 483.623871,240.862656 483.622345,240.530228 
	C483.539032,222.201904 483.772003,203.864563 483.255585,185.548370 
	C482.898315,172.875351 483.827606,160.251328 483.685577,147.601654 
	C483.648651,144.316635 485.781250,143.930038 488.341980,143.827896 
	C491.777100,143.690887 491.966217,145.917862 491.978973,148.442505 
	C492.070068,166.440948 492.208069,184.439194 492.283691,202.437683 
	C492.334076,214.437134 492.439301,226.439072 492.245331,238.435455 
	C492.172058,242.967407 493.950500,244.710358 498.382294,244.807526 
	C502.837158,244.905182 504.618744,243.102356 504.860016,238.674103 
	C506.538544,207.861359 505.524506,177.057617 504.787842,146.250946 
	C504.720154,143.418701 504.592987,140.580505 504.704132,137.753357 
	C504.825653,134.662216 503.711517,132.507248 501.222046,130.523117 
	C494.466675,125.139046 493.157349,115.633522 497.871948,108.585426 
	C501.572784,103.052849 507.848358,100.264053 514.409180,101.891281 
	C520.432068,103.385086 524.974976,106.810371 525.905090,113.535912 
	C526.805420,120.046417 525.930481,125.963249 519.596558,129.540100 
	C515.484009,131.862518 514.200317,135.090286 514.220093,139.785431 
	C514.359009,172.782974 514.239502,205.781677 514.173767,238.779953 
	C514.167419,241.961365 514.078735,244.694656 518.649414,244.816650 
	C522.907043,244.930298 524.180420,243.258286 524.131348,239.273468 
	C524.091309,236.018112 524.754517,232.754089 525.537842,229.498718 
	C527.789673,232.939468 526.890198,236.778915 527.121582,240.415634 
	C527.295898,243.154236 527.933228,244.806351 531.087280,244.871414 
	C534.334717,244.938431 535.690125,243.443375 535.672852,240.395660 
	C535.612366,229.731171 536.031738,219.034409 535.341797,208.410080 
	C534.335144,192.905853 535.002380,177.428314 535.030334,161.940033 
	C535.037903,157.740372 537.273193,154.547440 540.769958,151.000839 
	C542.820496,156.155090 543.070251,160.746017 543.154175,165.257141 
	C543.625305,190.569931 543.937561,215.885681 544.340088,241.199829 
	C544.372925,243.263947 543.792969,245.506119 546.409851,246.831100 
	C551.255859,249.284760 554.659058,247.485336 554.624268,242.048660 
	C554.472046,218.240631 554.126892,194.433578 554.042664,170.625488 
	C554.005615,160.139938 554.360291,149.650879 554.668945,139.167313 
	C554.780640,135.373001 553.619751,132.621643 550.450562,130.214417 
	C545.151062,126.189102 543.736572,114.562233 547.363831,108.540993 
	C550.861511,102.735039 560.034424,100.064186 566.381409,103.003723 
	C573.442688,106.274071 577.185364,114.664993 574.985840,122.341759 
	C573.796204,126.493515 570.781738,129.128525 567.169067,131.005096 
	C564.289978,132.500626 563.269287,134.466507 563.278625,137.737625 
	C563.381348,173.569183 563.378357,209.401321 563.257141,245.232819 
	C563.244873,248.851410 564.293823,250.543228 567.958862,251.398743 
	C581.486816,254.556396 581.581970,254.441483 581.687012,240.695862 
	C581.890564,214.054230 583.676941,187.429199 582.518677,160.770264 
	C582.455017,159.306824 582.382690,157.143784 583.238220,156.456802 
	C587.931213,152.688339 585.327515,149.021317 583.759949,145.037781 
	C582.016541,140.607407 584.689514,133.733643 588.997742,130.374313 
	C592.749695,127.448761 599.863403,127.155136 604.111389,129.750458 
	C608.947144,132.704895 611.537781,138.727127 610.422302,144.431091 
	C609.435913,149.475388 607.027893,153.411331 602.025513,155.412521 
	C600.828735,155.891281 599.740112,156.640228 597.921997,157.637894 
	C602.668579,158.951538 606.193176,159.773407 610.186157,156.774963 
	C614.214783,153.749786 619.673340,154.025986 624.242310,155.006409 
	C630.924255,156.440231 637.597717,153.224777 644.140808,155.786331 
	C645.589722,156.353577 646.882202,155.002411 648.175964,154.218796 
	C651.113525,152.439606 656.721558,153.543503 658.606262,156.181274 
	C659.883606,157.968994 659.867310,160.344452 659.015930,161.884354 
	C657.639160,164.374802 654.224243,164.636490 651.968201,164.682907 
	C633.366150,165.065552 614.738892,166.395523 596.155334,164.394608 
	C592.460449,163.996796 591.153992,165.244370 590.963867,168.971817 
	C590.403564,179.958191 590.354370,190.909042 590.779541,201.916412 
	C591.396240,217.882111 590.815491,233.869217 589.382324,249.800186 
	C588.770996,256.595642 589.124023,257.206299 595.757568,259.289642 
	C613.689392,264.921387 629.935425,274.101044 646.010193,283.546783 
	C653.565308,287.986267 653.907227,288.180511 660.164429,282.062958 
	C685.410583,257.380219 710.756287,232.799164 735.962341,208.075638 
	C741.901672,202.250015 747.383667,195.960648 753.192749,189.998260 
	C755.320923,187.813858 754.778687,185.484512 754.291138,183.014069 
	C752.880371,175.865204 757.757690,169.365417 765.078979,168.648453 
	C771.293335,168.039917 777.311279,168.421036 781.013672,174.383072 
	C784.899963,180.641373 783.590027,186.833649 780.862305,193.393372 
	C774.286926,209.206070 760.921936,219.390076 750.113037,231.679947 
	C739.332947,243.937057 726.955200,254.652802 715.719238,266.448578 
	C704.473328,278.254730 692.252991,289.045837 681.139160,300.951019 
	C679.490356,302.717255 675.920349,304.375000 678.904480,307.846069 
	C681.971191,311.413177 685.004700,311.104248 688.196960,307.912628 
	C707.496094,288.617432 727.813782,270.371887 746.286133,250.206131 
	C754.886353,240.817474 762.710205,230.459930 773.640137,223.335052 
	C775.505676,222.118988 776.864380,220.125427 778.860352,218.077377 
	C780.141968,222.900070 778.371216,226.087936 775.615479,229.203506 
	C756.183411,251.172775 735.987915,272.402374 715.049561,292.948181 
	C708.280640,299.590210 701.894348,306.628998 694.951904,313.118469 
	C692.502258,315.408295 690.139404,318.045990 692.759521,321.787872 
	C694.363220,324.078125 696.213013,324.895966 698.569946,322.840179 
	C700.326294,321.308167 702.148376,319.833618 703.767761,318.165161 
	C721.400024,299.999237 740.040710,282.842255 757.337402,264.333588 
	C765.732971,255.349777 774.655396,246.855942 783.398499,238.199966 
	C790.941895,230.731552 796.542908,221.477570 805.268555,215.048386 
	C808.780029,212.461121 810.065430,208.401871 808.370300,203.914154 
	C808.079041,203.143097 807.935974,202.301743 807.824585,201.479279 
	C806.767517,193.678543 810.443359,187.523041 817.068604,185.961105 
	C825.087463,184.070633 832.934326,187.758484 835.209290,194.486893 
	C837.853638,202.308258 834.681396,210.657043 827.895935,213.651047 
	C827.148499,213.980820 826.243225,214.430649 825.526978,214.278717 
	C819.160461,212.928162 815.465027,217.050079 811.346497,220.739716 
	C796.680481,233.878433 783.659973,248.582581 770.382935,263.061615 
	C752.803528,282.232300 733.141052,299.307861 714.831177,317.748749 
	C711.314453,321.290710 707.822937,324.859222 704.387756,328.479950 
	C702.826599,330.125427 701.491455,331.939484 703.908264,333.990387 
	C705.967590,335.738007 708.014893,337.758545 710.852722,335.348480 
	C712.246948,334.164429 713.589905,332.904968 714.846130,331.575745 
	C732.326294,313.080475 749.799988,294.579071 767.242859,276.048706 
	C770.893311,272.170593 774.557251,268.288666 777.949646,264.188934 
	C780.903503,260.619110 783.982971,259.919495 787.500854,262.385742 
	C775.120056,280.706024 758.927917,295.661865 744.838562,312.437622 
	C736.189453,322.735931 726.078735,331.811646 716.552246,341.364441 
	C714.434021,343.488525 712.272644,345.247559 715.369751,348.273102 
	C718.340881,351.175629 720.298584,348.810242 722.089600,347.015259 
	C730.558167,338.528076 738.286072,329.182526 747.427185,321.512512 
	C762.544983,308.827698 774.772705,293.304016 789.603516,280.357910 
	C796.239624,274.565063 802.960449,269.006866 810.372986,263.710724 
	C811.137451,266.071442 809.735474,267.374329 808.682739,268.741089 
	C800.664307,279.151062 791.516479,288.522827 782.146484,297.700958 
	C771.805847,307.829895 762.072083,318.556183 751.394287,328.366211 
	C742.949219,336.124969 735.035095,344.459930 726.832336,352.484955 
	C722.525208,356.698730 722.718323,360.063354 727.449951,364.021515 
	C730.146851,366.277466 731.495056,363.811981 732.813049,362.483459 
	C740.790894,354.441956 748.607178,346.240509 756.507446,338.121674 
	C770.678650,323.558258 784.550110,308.726746 798.286621,293.744904 
	C808.038818,283.108673 818.172913,272.677948 828.727356,262.746338 
	C833.299438,258.444153 835.774231,254.251328 832.297424,247.539398 
	C829.045593,241.261658 833.346375,232.027451 839.459106,229.414841 
	C847.280396,226.071976 856.330139,229.226868 859.942505,236.555695 
	C865.018921,246.854797 860.249390,256.813263 848.832947,258.557617 
	C844.319153,259.247284 841.393066,261.350281 838.325562,264.312225 
	C817.102600,284.804596 797.596497,306.930939 777.128784,328.130127 
	C763.717957,342.020264 750.850037,356.462463 736.797791,369.726898 
	C733.731018,372.621735 733.299133,374.791565 735.674377,378.574036 
	C747.325012,397.127106 753.462158,417.926788 759.326294,438.788940 
	C760.719971,443.747223 762.040588,448.735748 762.533264,453.923065 
	C762.858032,457.341797 764.409973,459.766327 768.559509,459.818146 
	C777.883972,459.934479 787.208435,460.261566 796.525330,460.675140 
	C800.399231,460.847107 801.964417,459.475403 801.638794,455.467346 
	C799.908813,434.172607 800.963989,412.826599 800.604614,391.505280 
	C800.534546,387.345795 800.182251,383.191620 800.000244,379.033234 
	C799.882324,376.341888 800.650452,374.615997 803.906860,374.629669 
	C807.045837,374.642822 808.000366,376.208588 808.026794,378.946014 
	C808.126526,389.278046 808.362244,399.610565 808.312988,409.941772 
	C808.242371,424.762329 808.717834,439.590607 807.315125,454.394989 
	C806.715942,460.719055 807.058411,460.993866 813.536987,460.526825 
	C825.355957,459.674744 837.183289,459.654877 849.007996,459.862396 
	C852.857178,459.929962 854.049622,458.357635 853.950745,454.886627 
	C853.827332,450.557220 853.896912,446.222015 853.754578,441.893585 
	C853.674744,439.464844 854.082092,437.560883 856.942078,437.198853 
	C859.462219,436.879883 861.148132,437.751526 861.738892,440.366302 
	C862.336243,443.010223 862.380920,445.900818 859.200684,446.339233 
	C854.912842,446.930267 856.728455,449.897156 856.333923,452.006561 
	C855.913757,454.252350 855.968811,455.949219 858.912109,456.952362 
	C862.773132,458.268219 863.845215,463.690063 861.309814,468.009460 
	C859.393005,471.275024 856.442078,471.741302 853.234924,469.781952 
	C851.296387,468.597626 849.224060,468.274750 847.020020,468.275085 
	C822.201538,468.278839 797.382996,468.255371 772.564514,468.279297 
	C769.667969,468.282104 766.491089,468.394501 766.334045,472.354401 
	C766.159424,476.756378 769.525879,476.733246 772.616333,476.781219 
	C795.604126,477.138275 818.596802,476.455963 841.586548,477.328705 
	C851.702637,477.712708 861.549561,474.102203 871.739258,474.632385 
	C874.433289,474.772552 875.320068,472.679016 876.267090,470.665955 
	C878.932190,465.000671 883.495239,461.949677 889.690247,461.879395 
	C896.305725,461.804321 901.898376,466.106873 903.143860,471.695679 
	C905.033691,480.175903 901.721802,487.054779 894.003967,490.679413 
	C888.715515,493.163055 882.708435,491.372314 878.346008,485.487457 
	C876.138916,482.510010 873.714050,481.281494 869.987122,481.256775 
	C848.995789,481.117645 828.048157,481.797882 807.077271,482.839294 
	C797.066528,483.336426 786.958618,483.874146 776.881592,483.491425 
	C775.388367,483.434692 773.857361,483.371277 772.398743,483.625671 
	C769.925110,484.057129 767.938049,485.175354 768.065125,488.165649 
	C768.194824,491.217407 769.863037,492.692627 772.869324,492.695892 
	C779.034241,492.702576 785.201355,492.579803 791.363586,492.706146 
	C812.268738,493.134827 833.153076,490.843262 854.065491,492.274445 
	C858.051697,492.547241 862.054504,492.571472 866.042725,492.821747 
	C867.978516,492.943298 870.087463,492.691254 872.359375,495.264191 
	C867.492493,496.378571 863.180359,498.004333 858.789062,498.257965 
	C842.166870,499.218048 825.498474,499.423676 808.887573,500.520416 
	C797.231628,501.290009 785.627747,501.336304 773.986755,500.756989 
	C770.297668,500.573395 768.542969,502.641174 768.288574,506.233215 
	C768.023254,509.978119 769.639404,511.900513 773.441772,511.924011 
	C783.259033,511.984741 793.042053,512.275208 802.873657,511.131836 
	C812.296143,510.036041 821.852905,510.670319 831.338013,511.198120 
	C845.002991,511.958496 858.616516,510.116364 872.273499,510.532898 
	C875.051270,510.617615 876.725098,508.860535 878.102783,506.513794 
	C882.004028,499.868256 888.081360,497.261261 894.893311,499.066559 
	C901.238647,500.748199 905.722168,506.223724 906.152466,512.816711 
	C906.603149,519.721619 902.014465,526.418152 895.068176,528.992981 
	C889.026428,531.232483 882.774597,529.364624 878.624695,523.075195 
	C875.716614,518.667908 872.206543,518.196716 867.522156,518.618713 
	C853.924011,519.843933 840.305359,520.057739 826.624390,519.739990 
	C811.849731,519.396912 797.044922,520.313660 782.254333,520.718689 
	C778.928528,520.809753 775.595764,521.318481 772.286133,521.175171 
	C766.743408,520.935059 767.388916,524.749939 767.151001,528.240540 
	C766.899048,531.936157 768.181152,533.377380 772.154297,533.829285 
	C787.976196,535.628967 803.735779,533.131592 819.529480,533.624390 
	C832.019836,534.014221 844.524780,533.927979 857.023132,534.070190 
	C859.669006,534.100281 862.412781,533.951599 864.131165,536.894043 
	C862.269287,539.296875 859.866211,540.075928 856.859314,540.278748 
	C830.403442,542.063721 803.917664,541.232178 777.443359,541.353760 
	C776.276917,541.359131 775.110413,541.313538 773.943848,541.309143 
	C766.218933,541.280334 762.384094,545.654419 763.525574,553.203125 
	C763.880859,555.552551 765.313843,556.749146 767.647766,556.685303 
	C783.640320,556.248291 799.600769,558.580566 815.595581,557.311340 
	C829.426575,556.213684 843.220398,556.959656 857.026245,557.748291 
	C861.398865,557.998047 861.492371,560.812012 861.296936,564.038086 
	C861.027954,568.476685 857.334900,567.660828 855.345642,567.003906 
	C840.833923,562.211182 825.950623,565.097290 811.256653,564.369568 
	C807.332031,564.175232 805.570740,565.502686 806.372253,569.530334 
	C808.347778,579.457153 807.309753,589.435303 806.544128,599.356506 
	C806.154175,604.410400 806.461060,607.467651 812.516052,608.966919 
	C821.717957,611.245361 825.635559,618.041260 825.372803,628.289795 
	C825.191833,635.347961 820.118530,641.170532 812.267029,643.331116 
	C806.358154,644.957092 799.842834,642.655212 795.863831,637.535889 
	C791.148376,631.468872 790.398865,622.127930 794.127808,615.861389 
	C794.298035,615.575378 794.434998,615.216003 794.690430,615.041992 
	C801.913940,610.120789 800.854309,602.761475 800.724976,595.498962 
	C800.567932,586.673828 800.742615,577.834229 801.087524,569.013123 
	C801.218994,565.652954 800.563293,564.186829 796.833862,564.263062 
	C787.005310,564.464111 777.167358,564.425354 767.337769,564.238647 
	C763.545044,564.166626 761.583313,565.687317 760.403748,569.222778 
	C757.138184,579.010315 753.417969,588.648987 750.270203,598.472290 
	C746.422241,610.480896 739.869690,621.164612 734.222046,632.285278 
	C732.354309,635.962891 732.861816,638.316162 735.953979,640.871643 
	C749.733704,652.259583 760.760803,666.332703 773.120544,679.107727 
	C782.361328,688.658936 791.274597,698.597656 801.865784,707.712463 
	C807.880249,699.865845 812.418762,691.078003 820.800903,685.284851 
	C821.891785,685.970093 822.484314,686.515259 823.076904,687.060364 
M333.528351,677.970703 
	C352.804688,696.167175 374.408173,711.023926 398.060364,722.941345 
	C427.100677,737.573608 457.809631,746.564331 490.265076,748.459229 
	C524.790222,750.474976 558.624146,746.829102 591.431519,734.715088 
	C631.454712,719.936707 665.689087,697.282593 694.188110,665.291565 
	C729.466614,625.690369 749.330200,579.531006 754.292175,527.213501 
	C757.099670,497.612305 754.392822,468.007721 746.463623,439.115936 
	C733.485413,391.826782 708.059387,352.078461 671.708618,319.654785 
	C634.581116,286.538330 591.170898,266.299561 541.294678,261.099457 
	C509.128571,257.745789 477.076813,258.090515 445.504333,265.938141 
	C409.248840,274.949860 376.580872,291.216400 347.829742,315.237335 
	C317.560425,340.526764 294.896301,371.536530 280.106354,407.899841 
	C265.896332,442.837402 260.333069,479.362610 261.848328,517.273254 
	C263.103546,548.678467 271.600433,577.917480 283.799622,606.359497 
	C295.372528,633.341309 312.947968,656.307129 333.528351,677.970703 
M755.841431,215.337830 
	C760.235718,211.518234 764.533875,207.582123 769.493652,204.466568 
	C770.778137,203.659698 772.029480,202.661743 771.570557,200.862473 
	C771.155212,199.233856 769.875732,198.494293 768.317932,198.135803 
	C766.380737,197.690033 764.148865,197.675262 762.582764,196.650986 
	C759.672791,194.747849 758.341003,196.200775 756.355652,198.134476 
	C750.863403,203.483948 746.238953,209.631409 740.827271,214.999344 
	C721.139099,234.528549 701.198608,253.803406 681.338806,273.159393 
	C678.492554,275.933441 675.438904,278.504883 672.708984,281.385925 
	C668.996277,285.304230 664.037903,288.055878 661.294067,292.887146 
	C663.009094,295.554016 665.773254,296.339935 667.600037,298.239594 
	C669.430298,300.142822 670.996338,299.541504 672.696594,297.882874 
	C682.458191,288.360382 692.711975,279.300751 701.983093,269.325928 
	C719.147217,250.858704 737.877563,233.981506 755.841431,215.337830 
M274.957062,225.551224 
	C280.490784,231.739685 286.777893,237.167480 292.652069,242.984741 
	C309.617188,259.785522 325.888916,277.285492 342.491486,294.454224 
	C345.893433,297.972168 348.862518,297.845093 352.615082,294.338959 
	C356.070221,291.110748 352.928314,289.077026 351.165894,286.830841 
	C350.551147,286.047363 349.845459,285.333740 349.163879,284.604462 
	C328.958252,262.984222 308.010620,242.094986 287.032471,221.229660 
	C279.385864,213.624161 271.312408,206.410477 264.725433,197.740662 
	C261.847748,193.953079 257.655792,194.407547 253.906845,198.024338 
	C250.426208,201.382278 253.625870,203.544037 255.510605,205.485794 
	C261.833282,211.999680 269.215942,217.480240 274.957062,225.551224 
M755.948425,685.567017 
	C759.907837,690.285034 763.840088,695.026184 767.835205,699.713806 
	C771.075195,703.515564 774.050598,707.844666 778.426147,710.224609 
	C795.434448,719.475769 808.095825,733.421387 820.311951,747.925415 
	C823.738770,751.993896 827.219666,756.017151 830.701416,760.038879 
	C832.287781,761.871155 833.813232,763.656372 836.410583,761.155884 
	C838.587524,759.060120 839.032166,757.214172 836.929871,754.755981 
	C833.562378,750.818542 829.606934,747.500122 825.980347,743.848328 
	C805.340088,723.064819 784.854309,702.127747 764.361389,681.198364 
	C753.770813,670.382263 743.719543,659.035767 732.466614,648.871521 
	C730.809692,647.374817 729.201538,645.690369 726.851257,647.410400 
	C724.746643,648.950623 724.179077,651.276001 724.934692,653.636414 
	C725.305542,654.794800 726.429688,655.845398 727.449341,656.642212 
	C738.019958,664.902771 746.131592,675.580139 755.948425,685.567017 
M284.697693,730.173950 
	C285.281860,729.582825 285.827179,728.946411 286.455963,728.407349 
	C298.959290,717.689087 310.734039,706.210876 322.079773,694.284668 
	C324.962341,691.254578 326.130127,688.244812 322.421570,684.875671 
	C318.712830,681.506409 316.421021,684.171509 314.074982,686.623291 
	C306.252777,694.797913 298.725342,703.273499 290.613983,711.148621 
	C274.149750,727.133545 258.303467,743.711914 242.552826,760.382812 
	C238.454758,764.720276 234.937134,769.618164 231.294785,774.367432 
	C230.057632,775.980652 228.466354,777.760132 230.412415,780.907288 
	C250.053482,765.786377 267.541107,748.686646 284.697693,730.173950 
M197.057205,746.490356 
	C199.030045,745.945618 201.123337,745.184570 202.005783,743.358704 
	C206.673904,733.700134 216.397751,728.586731 222.412262,719.818176 
	C231.205307,706.998840 243.149826,696.496094 253.078323,684.389160 
	C263.438171,671.756226 275.703339,660.898865 287.235535,649.367188 
	C290.107178,646.495667 289.698456,643.902771 287.292572,641.666016 
	C284.445312,639.018738 282.909882,642.076355 281.491882,643.906555 
	C270.799988,657.707153 259.988007,671.379883 248.678360,684.712891 
	C227.307037,709.907532 204.521744,733.542725 178.751358,754.250854 
	C178.283463,754.626953 178.048553,755.292969 177.734528,755.777954 
	C182.141922,760.469910 182.454071,760.446350 185.986938,755.953796 
	C188.887589,752.265198 192.153946,748.960999 197.057205,746.490356 
M801.527710,629.796387 
	C803.305786,633.196777 805.671997,636.490967 809.869324,635.383179 
	C813.385559,634.455139 817.187866,632.816284 817.762207,628.138306 
	C818.286804,623.866028 816.783203,620.775085 812.938721,618.685730 
	C809.868652,617.017334 806.798035,615.683228 803.747375,618.292419 
	C800.357361,621.191895 799.599487,624.907715 801.527710,629.796387 
M133.772308,509.785461 
	C131.428864,507.183990 128.781631,506.451660 126.030243,508.993073 
	C123.055801,511.740570 123.778908,514.937134 125.528305,518.009583 
	C127.041588,520.667480 129.525604,521.916992 132.184296,520.302307 
	C135.061234,518.555115 136.201767,515.610474 135.027069,512.163696 
	C134.815781,511.543640 134.480591,510.965820 133.772308,509.785461 
M510.007416,123.444016 
	C512.178101,123.942833 513.923157,123.064568 515.378723,121.603676 
	C517.177368,119.798439 517.680542,117.683685 516.559265,115.267136 
	C515.364624,112.692528 513.500366,110.684425 510.642456,110.625961 
	C507.926849,110.570435 505.919586,112.509445 505.250427,115.019577 
	C504.262909,118.724060 506.343445,121.271812 510.007416,123.444016 
M504.495972,909.019653 
	C507.119720,914.564453 509.926544,916.179260 513.350281,913.876831 
	C515.673340,912.314575 517.246216,910.087952 516.271301,907.089233 
	C515.297119,904.092957 513.043823,902.260376 509.890961,902.559692 
	C506.684906,902.864075 504.151642,904.395447 504.495972,909.019653 
M558.826538,111.403801 
	C554.396484,113.797890 553.158081,116.988213 555.296814,120.496895 
	C557.287354,123.762573 560.683411,124.609047 563.244324,122.477882 
	C566.108093,120.094681 566.448547,115.843765 564.002625,113.164200 
	C562.804871,111.852028 561.329041,111.258896 558.826538,111.403801 
M848.149170,765.885132 
	C844.687683,766.251892 841.160889,767.207520 840.611389,771.036377 
	C840.201233,773.894226 842.156311,776.563782 845.098999,777.543762 
	C847.990234,778.506836 850.542542,777.214111 851.773132,774.554504 
	C853.414124,771.007568 851.926514,768.165527 848.149170,765.885132 
M885.580139,513.665405 
	C886.091370,515.392456 886.379944,517.229858 887.168274,518.819458 
	C888.235229,520.971008 890.226990,521.440002 892.183655,520.117493 
	C894.893494,518.285889 896.989990,515.780823 896.258057,512.273621 
	C895.729309,509.739716 893.971436,507.627228 891.178528,507.519379 
	C887.689453,507.384644 886.552917,510.143646 885.580139,513.665405 
M823.484009,811.718933 
	C822.806885,808.736816 821.226624,806.450500 818.132935,805.765503 
	C816.267395,805.352539 815.009033,806.761292 814.069519,808.151917 
	C812.485535,810.496338 812.015991,813.015442 813.398621,815.682068 
	C814.326782,817.472473 815.822693,818.699402 817.754150,818.457886 
	C821.141479,818.034302 822.857300,815.650146 823.484009,811.718933 
M466.820221,122.287567 
	C467.989716,121.260353 468.666382,120.017952 468.642456,118.412621 
	C468.587891,114.751076 466.534607,112.304207 463.238953,111.691231 
	C460.307281,111.145935 458.273987,113.432556 457.548676,116.118660 
	C456.629150,119.524010 458.556366,121.749802 461.536743,123.147812 
	C463.166138,123.912109 464.737976,123.648026 466.820221,122.287567 
M168.218491,774.403503 
	C171.529388,779.312805 175.538406,780.057861 177.785980,776.141174 
	C179.167297,773.734070 178.974396,771.310547 177.134781,769.242798 
	C175.332001,767.216431 172.837158,766.438599 170.370102,767.446350 
	C167.642639,768.560425 167.316040,771.069275 168.218491,774.403503 
M557.089478,905.660522 
	C555.807434,906.529358 554.879089,907.731079 554.557068,909.203613 
	C553.836914,912.496948 555.643250,914.524109 558.331360,915.947693 
	C560.605896,917.152222 562.609985,916.548645 563.899353,914.463928 
	C565.370728,912.084839 565.594055,909.273865 564.221619,906.903503 
	C562.807129,904.460510 560.310730,904.135437 557.089478,905.660522 
M848.887024,238.683151 
	C846.371582,236.356583 844.311279,237.534134 842.605469,239.684769 
	C839.998169,242.971848 841.669556,245.882736 843.721191,248.647827 
	C844.847961,250.166595 846.261414,250.745483 847.976501,249.520264 
	C850.548767,247.682648 852.482178,245.488693 851.284180,242.047485 
	C850.919800,241.000748 850.048950,240.130325 848.887024,238.683151 
M425.603271,141.644974 
	C424.871857,137.868637 422.317780,136.164139 418.814392,136.890579 
	C415.084961,137.663879 414.890076,140.900131 415.309814,144.041550 
	C415.668335,146.725189 417.476959,148.365814 419.994232,148.290710 
	C423.512909,148.185760 424.994568,145.554993 425.603271,141.644974 
M598.403076,137.173904 
	C596.248840,136.175766 593.874573,135.843964 592.844360,138.325073 
	C591.607605,141.303879 591.702759,144.547974 594.169006,147.104828 
	C595.511353,148.496475 597.255493,149.183960 599.073914,147.886856 
	C601.486389,146.166061 602.122314,143.690277 601.709167,140.872070 
	C601.472351,139.257156 600.416260,138.250656 598.403076,137.173904 
M422.856384,880.563599 
	C424.611511,878.536621 426.578613,876.474548 424.725952,873.587952 
	C423.074280,871.014587 420.730957,869.353271 417.627838,870.994202 
	C414.354095,872.725342 414.406036,875.920288 415.442261,878.816467 
	C416.628387,882.131775 419.231628,882.647217 422.856384,880.563599 
M767.422729,187.962006 
	C770.096130,189.329956 771.867920,187.849640 773.405579,185.958511 
	C774.663025,184.411880 774.912415,182.699844 773.799011,180.884186 
	C772.613831,178.951553 771.190857,177.218109 768.709595,177.614365 
	C766.573059,177.955551 764.336304,178.776382 763.560364,181.053024 
	C762.506348,184.145554 764.509583,186.020981 767.422729,187.962006 
M464.180542,905.300293 
	C460.969635,903.614807 458.228577,904.137756 456.725006,907.520447 
	C455.667725,909.899048 455.784760,912.476257 458.190582,914.261719 
	C460.598755,916.048828 462.922119,915.602417 464.888885,913.537842 
	C467.346588,910.957642 467.493195,908.280457 464.180542,905.300293 
M192.364670,815.174561 
	C194.431198,817.989136 197.122192,818.960327 200.029922,816.850647 
	C202.548370,815.023315 202.312943,812.069336 201.107254,809.645325 
	C199.815170,807.047546 197.099945,806.701477 194.631027,807.654846 
	C191.466705,808.876709 190.674911,811.383850 192.364670,815.174561 
M250.612045,188.635910 
	C254.080078,188.572372 255.830154,186.256927 256.308044,183.354553 
	C256.728088,180.803574 254.714767,179.082489 252.522919,178.012711 
	C250.106720,176.833435 248.293900,178.352676 246.783081,179.881256 
	C244.172394,182.522583 245.363846,185.652466 250.612045,188.635910 
M169.040421,239.381195 
	C166.266998,242.344055 167.188980,245.138794 169.642975,247.625198 
	C171.382095,249.387222 173.584213,249.246307 175.533142,247.930191 
	C177.880753,246.344879 178.617783,243.925964 177.455063,241.417282 
	C175.852173,237.958969 173.042725,237.271988 169.040421,239.381195 
M246.086166,823.200745 
	C245.120087,826.784058 247.053726,828.938904 249.936600,830.306091 
	C251.651825,831.119568 253.557663,830.815918 254.903137,829.201660 
	C256.583252,827.186035 256.587494,824.905273 255.479492,822.682739 
	C253.822723,819.359375 250.157410,819.354736 246.086166,823.200745 
M763.711609,825.416382 
	C764.299438,828.546936 766.197998,830.100830 769.352295,829.705505 
	C771.779846,829.401245 774.163635,828.309265 774.374451,825.644470 
	C774.593445,822.874451 772.442200,821.053833 770.099731,820.052002 
	C765.579895,818.118774 764.770020,821.635864 763.711609,825.416382 
M601.938171,872.463135 
	C599.960815,870.940308 597.964478,870.888123 596.109436,872.589600 
	C594.841125,873.752808 593.962830,875.199341 594.784912,876.998108 
	C595.734802,879.076721 596.460999,881.482666 599.269470,881.765015 
	C601.338013,881.972900 602.618835,880.636475 603.690552,879.091675 
	C605.395630,876.634094 604.112671,874.747375 601.938171,872.463135 
M197.226273,195.040161 
	C194.417679,193.284378 192.119095,194.243011 190.197250,196.502792 
	C188.879074,198.052780 188.776581,199.898331 189.815582,201.626907 
	C191.112427,203.784454 193.255188,204.177078 195.506866,203.714493 
	C199.116058,202.973053 199.998810,199.646286 197.226273,195.040161 
M888.599915,481.660553 
	C889.387756,481.457031 890.293030,481.436310 890.943298,481.018616 
	C893.948120,479.088654 894.539124,476.258911 893.050964,473.234589 
	C892.047180,471.194519 890.133972,469.812439 887.705322,471.068939 
	C884.515137,472.719421 885.124939,475.757965 885.462341,478.554810 
	C885.632507,479.964813 886.586670,480.918762 888.599915,481.660553 
M824.941467,203.264267 
	C826.308960,200.509811 825.781189,198.079391 823.447998,196.181641 
	C821.911743,194.932083 820.022522,194.823257 818.351074,195.911758 
	C816.468567,197.137756 816.059326,199.097687 816.537720,201.180145 
	C817.407104,204.964798 820.531250,205.975311 824.941467,203.264267 
M134.292587,473.683228 
	C132.813492,471.559326 130.909821,470.947144 128.786285,472.555176 
	C126.719818,474.119995 126.986259,476.401123 127.830742,478.442963 
	C128.614502,480.337952 130.066040,482.021271 132.371399,481.567169 
	C135.247620,481.000671 134.805313,478.451935 134.854858,476.345276 
	C134.870178,475.694122 134.668564,475.037842 134.292587,473.683228 
z"/>
<path fill="#000000" opacity="1.000000" stroke="none" 
	d="
M202.824707,640.624329 
	C195.373276,635.999329 192.249298,629.518494 193.829269,621.385132 
	C195.155258,614.559143 199.829681,609.855103 206.246475,607.559021 
	C210.032333,606.204468 210.852249,604.146912 210.775269,600.543762 
	C210.597733,592.235535 210.753479,583.919250 210.836014,575.606934 
	C210.859100,573.281006 210.772141,570.413452 213.934341,570.273254 
	C217.379501,570.120483 217.014389,573.125305 217.031464,575.382812 
	C217.099319,584.353088 217.618790,593.339661 216.520386,602.281006 
	C216.138000,605.393799 217.082794,607.477478 219.626923,609.516479 
	C227.190094,615.577820 229.244278,624.542175 225.378098,632.668762 
	C221.203690,641.443054 214.596405,643.868103 202.824707,640.624329 
M212.591095,634.019836 
	C215.685242,632.849854 217.991684,630.867615 219.112030,627.672852 
	C220.375534,624.069824 219.140640,621.011658 216.451004,618.783691 
	C214.119507,616.852478 211.532608,614.536926 208.025238,616.040649 
	C204.306625,617.634827 201.601639,623.383118 202.530136,627.338257 
	C203.599472,631.893311 206.726837,634.205261 212.591095,634.019836 
z"/>
<path fill="#000000" opacity="1.000000" stroke="none" 
	d="
M637.077393,218.524475 
	C629.568848,219.658463 622.781250,218.694778 618.363953,212.605270 
	C614.214111,206.884460 612.392517,200.000549 615.978149,193.355896 
	C619.415833,186.985352 624.720215,182.474625 632.638000,182.571594 
	C640.280212,182.665176 647.569641,189.258377 649.372314,197.221863 
	C651.009705,204.455322 646.993347,216.024490 639.765991,217.458191 
	C638.969604,217.616165 638.234985,218.084915 637.077393,218.524475 
M629.622681,191.943405 
	C623.057983,196.583282 622.052063,205.912491 627.791077,209.211166 
	C631.342285,211.252350 634.987915,211.044266 637.903381,208.299576 
	C641.277710,205.122910 641.581421,200.951141 639.659607,196.864914 
	C637.855103,193.028137 635.198059,190.192520 629.622681,191.943405 
z"/>
<path fill="#000000" opacity="1.000000" stroke="none" 
	d="
M645.712646,787.087524 
	C655.489746,795.553772 653.919434,806.351868 648.853027,812.709106 
	C644.447632,818.236877 636.432495,820.551025 628.517090,818.187988 
	C622.883423,816.506226 618.110413,809.311523 617.585388,802.806335 
	C616.960449,795.062500 620.142090,789.546570 626.575500,785.796814 
	C632.992493,782.056641 639.330688,783.150330 645.712646,787.087524 
M642.941956,797.817871 
	C642.227478,796.907410 641.620056,795.880859 640.780396,795.106079 
	C636.727478,791.366760 631.957520,791.287354 628.930481,794.827881 
	C625.043762,799.373962 625.676697,805.213989 630.447693,808.826416 
	C634.312012,811.752319 639.576050,810.606201 642.509644,806.189697 
	C644.119202,803.766479 643.838135,801.141296 642.941956,797.817871 
z"/>
<path fill="#000000" opacity="1.000000" stroke="none" 
	d="
M400.974976,209.625580 
	C395.074585,218.832901 387.118896,221.287354 378.101990,216.972702 
	C371.049774,213.598190 366.906433,203.144958 369.394989,195.005753 
	C372.113892,186.113022 380.224762,181.170914 389.591461,182.699692 
	C398.594177,184.169067 405.330627,195.233109 402.869354,204.602936 
	C402.449219,206.202377 401.731171,207.723587 400.974976,209.625580 
M380.642426,207.749908 
	C383.891052,211.476974 387.520721,211.348236 391.254852,208.641830 
	C394.793243,206.077286 395.981964,200.843536 393.715088,196.975647 
	C391.591278,193.351898 388.562531,190.669037 383.958527,191.597290 
	C380.499023,192.294754 377.890900,197.228012 378.135590,201.630585 
	C378.251465,203.715836 379.002441,205.494080 380.642426,207.749908 
z"/>
<path fill="#000000" opacity="1.000000" stroke="none" 
	d="
M384.213074,819.263855 
	C373.595123,817.215820 369.098145,813.153381 367.842926,804.852173 
	C366.544403,796.264282 369.882355,788.864563 376.858612,784.866028 
	C387.390411,778.829529 400.486237,785.869263 401.418701,798.020264 
	C401.726990,802.037537 401.712769,805.980835 399.982574,809.720459 
	C396.963379,816.245972 392.072144,819.800659 384.213074,819.263855 
M385.735199,809.952515 
	C387.753052,809.569641 389.465576,808.614990 390.904755,807.164612 
	C394.246613,803.796692 393.828766,800.029846 391.954865,796.190857 
	C390.470276,793.149475 388.224640,791.059937 384.557739,791.428467 
	C380.195160,791.866943 376.033569,797.015137 376.117523,801.713928 
	C376.207733,806.762024 379.491852,809.854980 385.735199,809.952515 
z"/>
<path fill="#000000" opacity="1.000000" stroke="none" 
	d="
M892.246887,564.071289 
	C884.540161,565.456543 879.049744,562.776917 875.767456,556.221741 
	C874.194824,553.080994 871.722717,553.434753 869.077148,553.285034 
	C865.991699,553.110413 862.386841,553.932922 860.537109,549.873779 
	C862.515686,547.955322 864.829407,548.543457 866.783447,548.762878 
	C872.005127,549.349060 875.521790,547.629761 878.162537,542.885498 
	C880.586914,538.529907 884.231201,535.344727 889.986572,536.602844 
	C895.626038,537.835571 899.630005,541.076721 901.581787,546.446289 
	C903.900269,552.824585 900.395935,559.413879 892.246887,564.071289 
M888.233643,546.465759 
	C884.593994,546.230530 884.105591,548.613831 884.446167,551.331482 
	C884.699097,553.349792 885.610107,555.433838 887.921143,555.588867 
	C890.806702,555.782532 891.810242,553.290894 892.431458,551.094849 
	C893.213623,548.330261 891.098267,547.347534 888.233643,546.465759 
z"/>
<path fill="#000000" opacity="1.000000" stroke="none" 
	d="
M118.788162,548.493713 
	C122.015236,539.740173 128.305954,535.679016 135.522751,537.302795 
	C140.992462,538.533386 146.825363,545.371948 146.744141,550.458801 
	C146.653351,556.144287 140.789978,562.280945 134.552979,563.218079 
	C124.702309,564.698242 118.509232,559.099548 118.788162,548.493713 
M134.216675,553.845337 
	C136.330154,551.856934 137.681763,549.713196 135.243439,547.078979 
	C133.610153,545.314453 131.628754,544.774536 129.477341,546.118591 
	C127.355659,547.444031 126.829445,549.530518 127.631470,551.726746 
	C128.656906,554.534790 130.806854,555.310181 134.216675,553.845337 
z"/>
<path fill="#000000" opacity="1.000000" stroke="none" 
	d="
M197.286346,697.573853 
	C194.160736,692.148926 192.975342,686.049072 188.143814,681.984375 
	C187.106583,681.111694 186.626694,679.394714 186.242157,677.971558 
	C185.693802,675.942322 184.726425,673.372681 187.287613,672.226746 
	C189.788742,671.107727 192.368591,671.350708 194.404739,673.940918 
	C196.369690,676.440552 196.144852,679.239685 196.186325,682.027039 
	C196.220993,684.356201 197.171494,685.572571 199.075867,687.174988 
	C204.720963,691.925110 208.540512,698.198059 210.993210,705.193115 
	C211.687210,707.172363 210.849350,708.787170 208.894424,709.691284 
	C206.958069,710.586914 205.681381,709.494934 204.664871,708.091492 
	C202.225082,704.723145 199.870789,701.292908 197.286346,697.573853 
z"/>
<path fill="#000000" opacity="1.000000" stroke="none" 
	d="
M813.031128,328.851349 
	C813.539673,330.963531 814.474243,332.199341 816.306519,332.674103 
	C817.255127,332.919922 818.357971,333.125183 819.041199,333.738525 
	C821.312256,335.777374 823.053589,338.240784 823.009338,341.444275 
	C822.990051,342.843628 821.968018,344.081390 820.588806,344.301086 
	C817.179382,344.844116 815.556152,342.189423 813.936584,339.945801 
	C812.789490,338.356567 811.839783,336.510559 811.276062,334.636536 
	C809.774170,329.643860 807.102539,326.006622 802.297424,323.417877 
	C796.334534,320.205353 795.694458,317.295349 798.174561,311.615112 
	C804.657776,311.986633 810.669556,318.842285 813.031128,328.851349 
z"/>
<path fill="#000000" opacity="1.000000" stroke="none" 
	d="
M823.359070,687.130615 
	C822.484314,686.515259 821.891785,685.970093 821.124329,685.176025 
	C820.295715,676.829041 823.029480,671.813477 829.193909,669.946777 
	C828.903259,666.377625 830.157959,663.126831 831.625122,659.964417 
	C832.963928,657.078613 835.328308,656.098267 838.217102,657.403381 
	C841.353516,658.820251 840.007507,661.244629 839.062866,663.351685 
	C838.455933,664.705383 837.658386,666.011292 836.746582,667.183289 
	C834.419067,670.174988 832.767517,673.169373 831.998779,677.171875 
	C831.178772,681.441589 828.803223,685.852478 823.359070,687.130615 
z"/>
<path fill="#000000" opacity="1.000000" stroke="none" 
	d="
M379.471191,160.464600 
	C376.528748,159.857117 376.660858,157.946243 376.958313,156.093948 
	C377.305786,153.930283 379.087402,153.763626 380.787354,153.754364 
	C389.270294,153.708115 397.753448,153.696884 406.236542,153.698959 
	C407.976166,153.699387 409.781403,153.939560 409.865845,156.163712 
	C409.935669,158.003082 408.731689,159.298340 407.039764,159.869461 
	C405.964264,160.232498 404.744354,160.372864 403.605682,160.310898 
	C395.691864,159.880280 387.785278,159.722198 379.471191,160.464600 
z"/>
<path fill="#000000" opacity="1.000000" stroke="none" 
	d="
M158.748199,572.027466 
	C163.418121,574.959351 166.938202,587.373169 164.646515,591.472778 
	C163.310013,593.863647 159.038101,594.093994 158.087799,591.525452 
	C156.131058,586.236633 154.515244,580.769226 155.077759,574.983337 
	C155.261978,573.088501 156.289642,571.923889 158.748199,572.027466 
z"/>
<path fill="#000000" opacity="1.000000" stroke="none" 
	d="
M843.627930,400.999756 
	C842.024048,397.846497 840.967285,394.896729 840.526672,391.743103 
	C840.276611,389.953003 839.560669,387.890961 841.959167,387.096039 
	C844.104675,386.385010 846.534058,386.443726 847.725769,388.661499 
	C849.362793,391.708069 850.883789,394.916199 851.773621,398.237518 
	C852.687256,401.647400 848.643372,403.164856 843.627930,400.999756 
z"/>
<path fill="#000000" opacity="1.000000" stroke="none" 
	d="
M855.747803,413.756622 
	C856.950256,417.390778 858.033997,420.706329 858.945068,424.068726 
	C860.021118,428.040375 857.274841,428.686737 854.325745,429.535980 
	C850.620117,430.603149 850.392273,428.083893 850.094299,425.803406 
	C849.628296,422.237488 848.326965,418.503387 850.891052,415.199738 
	C852.010376,413.757599 853.008362,411.353668 855.747803,413.756622 
z"/>
<path fill="#000000" opacity="1.000000" stroke="none" 
	d="
M838.137268,641.676514 
	C838.869751,639.936462 839.313049,638.468384 840.143555,637.268127 
	C841.770325,634.917053 844.214050,635.183289 846.465576,635.995239 
	C848.698914,636.800537 848.470581,638.971313 848.101013,640.709351 
	C847.657227,642.796387 846.850952,644.838562 845.958557,646.788940 
	C845.037598,648.801941 843.802307,650.716064 841.052185,649.984802 
	C838.554810,649.320679 837.679016,647.483032 837.800537,645.050476 
	C837.850220,644.055603 837.947571,643.063171 838.137268,641.676514 
z"/>
<path fill="#000000" opacity="1.000000" stroke="none" 
	d="
M851.389282,603.638062 
	C851.874634,601.992676 851.981323,600.493835 852.766541,599.574829 
	C854.242981,597.846924 856.448914,597.254456 858.631042,597.866150 
	C860.741455,598.457825 860.233093,600.499756 860.263733,602.069397 
	C860.299072,603.877502 860.236145,605.704468 860.009277,607.497070 
	C859.636169,610.445068 858.293213,612.421387 854.881470,612.232300 
	C851.385010,612.038513 851.136841,609.606995 851.105530,607.003418 
	C851.093750,606.018677 851.241760,605.032104 851.389282,603.638062 
z"/>
<path fill="#000000" opacity="1.000000" stroke="none" 
	d="
M159.337875,452.444183 
	C157.731537,448.998352 157.452469,445.730499 157.788696,442.406433 
	C158.072632,439.599304 159.348907,437.642303 162.541534,438.007233 
	C165.571121,438.353546 166.126205,440.505127 165.860870,443.070496 
	C165.606812,445.527191 165.404816,447.998749 164.962738,450.424194 
	C164.358475,453.739532 162.800232,455.293427 159.337875,452.444183 
z"/>
<path fill="#000000" opacity="1.000000" stroke="none" 
	d="
M167.802155,602.264526 
	C168.672699,604.475098 169.422531,606.318237 169.946243,608.223450 
	C170.856567,611.535034 169.244781,612.935852 166.103912,613.776001 
	C162.641937,614.701904 161.516922,612.912231 160.925674,610.226379 
	C160.572815,608.623535 160.598083,606.937439 160.454086,605.288635 
	C160.282974,603.329346 159.664856,601.026855 161.937668,600.016296 
	C164.136810,599.038513 166.139297,599.972900 167.802155,602.264526 
z"/>
<path fill="#000000" opacity="1.000000" stroke="none" 
	d="
M853.285889,620.205078 
	C854.514771,623.132141 854.391724,625.711609 853.308777,628.257751 
	C851.765259,631.886963 848.857666,630.954285 846.098694,630.350403 
	C842.796814,629.627686 843.780884,627.261902 844.323364,625.237732 
	C845.976685,619.069763 848.475586,617.577148 853.285889,620.205078 
z"/>
<path fill="#000000" opacity="1.000000" stroke="none" 
	d="
M833.712158,376.067139 
	C833.506775,373.371185 831.339111,370.607697 834.671753,369.095093 
	C836.666565,368.189728 839.097107,368.230530 840.577515,370.258270 
	C842.561951,372.976410 844.178528,376.076569 842.771545,379.496643 
	C841.858398,381.716248 839.425049,381.331299 837.477966,381.134766 
	C834.771606,380.861511 834.273376,378.623108 833.712158,376.067139 
z"/>
<path fill="#000000" opacity="1.000000" stroke="none" 
	d="
M834.388184,359.687378 
	C832.485291,361.826233 830.311462,363.703705 827.862427,362.153229 
	C825.182800,360.456757 823.797913,357.415771 823.096863,354.294495 
	C822.744812,352.726776 824.026245,351.997162 825.302917,351.430695 
	C827.035583,350.661926 828.801453,350.036133 830.317322,351.702454 
	C832.316284,353.899933 834.274719,356.163849 834.388184,359.687378 
z"/>
<path fill="#000000" opacity="1.000000" stroke="none" 
	d="
M173.340057,620.741272 
	C173.686493,621.778076 173.923584,622.401794 174.061188,623.046753 
	C174.787888,626.452698 173.641998,628.869995 170.298233,630.135376 
	C168.018997,630.997864 166.853058,629.584045 165.935364,627.926270 
	C164.502121,625.337158 163.623749,622.285767 165.821793,620.050720 
	C167.900772,617.936768 170.829788,617.636902 173.340057,620.741272 
z"/>
<path fill="#000000" opacity="1.000000" stroke="none" 
	d="
M861.222839,581.125732 
	C856.911255,580.065369 856.521973,577.125977 857.449707,574.041992 
	C858.516602,570.494995 861.777466,571.789978 864.242188,571.744202 
	C866.944519,571.693970 867.336731,573.667419 867.295532,575.865173 
	C867.225525,579.600769 865.269043,581.269775 861.222839,581.125732 
z"/>
<path fill="#000000" opacity="1.000000" stroke="none" 
	d="
M612.640381,818.504761 
	C613.198181,821.726501 612.610474,823.945740 609.252625,824.182068 
	C607.257996,824.322388 605.112915,824.375183 604.324524,821.907959 
	C603.632202,819.741211 604.320312,817.914856 606.317200,816.834045 
	C608.662537,815.564636 611.034973,814.877869 612.640381,818.504761 
z"/>
<path fill="#000000" opacity="1.000000" stroke="none" 
	d="
M671.832031,204.283081 
	C675.145081,205.974380 674.758057,208.457474 673.504456,210.680084 
	C672.396362,212.644730 670.132263,212.481430 668.174194,212.112045 
	C666.146362,211.729477 665.749023,210.077820 665.912781,208.337494 
	C666.227722,204.990814 668.498413,204.101440 671.832031,204.283081 
z"/>
<path fill="#000000" opacity="1.000000" stroke="none" 
	d="
M368.303345,168.879639 
	C367.957214,172.118042 366.422394,173.583359 363.589294,173.031311 
	C361.064575,172.539383 360.890350,170.422760 361.031128,168.348969 
	C361.196838,165.907654 362.322601,164.289993 364.989746,164.171432 
	C368.112030,164.032639 368.397186,166.101913 368.303345,168.879639 
z"/>
<path fill="#000000" opacity="1.000000" stroke="none" 
	d="
M862.038818,589.978455 
	C861.485840,592.948059 860.237183,594.680359 857.323242,594.206787 
	C854.317017,593.718140 854.793396,591.253723 854.696594,589.194031 
	C854.590332,586.933899 855.533936,585.127075 857.912292,585.118103 
	C860.587585,585.108032 861.991455,586.860107 862.038818,589.978455 
z"/>
<path fill="#000000" opacity="1.000000" stroke="none" 
	d="
M182.797272,657.179443 
	C183.730133,661.020203 184.430725,664.595032 185.177521,668.405579 
	C181.432419,667.193359 177.778748,661.537476 178.501404,658.483948 
	C179.054993,656.144836 180.534912,655.691345 182.797272,657.179443 
z"/>
<path fill="#000000" opacity="1.000000" stroke="none" 
	d="
M190.508148,433.239777 
	C191.874802,434.242249 192.175964,435.334412 192.093246,436.543884 
	C191.919556,439.083344 191.163315,441.163818 188.077606,441.167297 
	C185.339890,441.170380 184.952484,439.253662 184.805756,437.120453 
	C184.614731,434.343018 185.470383,432.539398 188.659882,432.817169 
	C189.152878,432.860077 189.640182,432.968506 190.508148,433.239777 
z"/>
<path fill="#000000" opacity="1.000000" stroke="none" 
	d="
M350.616455,209.415405 
	C349.893280,211.845306 348.990234,214.028885 346.463135,212.903732 
	C343.943909,211.782074 343.343140,209.107162 343.770569,206.518433 
	C344.116974,204.420181 345.662323,203.373779 347.809021,203.860916 
	C350.570679,204.487625 351.710419,206.206009 350.616455,209.415405 
z"/>
<path fill="#000000" opacity="1.000000" stroke="none" 
	d="
M369.148926,851.708740 
	C367.823364,854.720520 365.708435,854.830994 363.712952,853.472290 
	C361.834015,852.192749 362.046753,850.005310 362.601898,848.000061 
	C363.164429,845.968018 364.803284,845.587708 366.544128,845.831787 
	C369.995667,846.315735 369.143127,849.060425 369.148926,851.708740 
z"/>
<path fill="#000000" opacity="1.000000" stroke="none" 
	d="
M345.158539,190.273315 
	C344.018494,187.138397 345.456024,185.806839 348.059113,185.847855 
	C350.762421,185.890457 353.376617,187.015472 354.576385,189.463013 
	C355.383270,191.109116 353.706909,192.128067 352.035706,192.166290 
	C349.707764,192.219559 347.454163,191.755981 345.158539,190.273315 
z"/>
<path fill="#000000" opacity="1.000000" stroke="none" 
	d="
M631.111694,766.935364 
	C633.823181,766.520142 636.605042,764.841980 637.972229,768.185608 
	C638.636719,769.810852 638.902100,771.879639 637.314758,773.306702 
	C635.985107,774.502136 634.336304,773.986633 633.178040,773.043884 
	C631.364014,771.567261 628.745972,770.201477 631.111694,766.935364 
z"/>
<path fill="#000000" opacity="1.000000" stroke="none" 
	d="
M680.797668,174.657394 
	C675.280334,173.276993 677.334595,169.867493 677.900879,166.659866 
	C683.540344,168.210770 684.549805,170.920059 680.797668,174.657394 
z"/>
<path fill="#000000" opacity="1.000000" stroke="none" 
	d="
M653.190491,752.942627 
	C656.314026,753.079529 658.137634,754.694397 657.777771,757.271362 
	C657.390930,760.041626 654.898682,760.356262 652.099548,760.059082 
	C652.105652,757.578247 649.683167,755.137634 653.190491,752.942627 
z"/>
<path fill="#000000" opacity="1.000000" stroke="none" 
	d="
M674.209045,819.015503 
	C673.628357,821.960266 671.899719,822.532715 669.721130,821.808716 
	C668.077942,821.262756 667.747009,819.744568 667.853088,818.157410 
	C667.952576,816.669189 668.655090,815.615051 670.210632,815.470032 
	C672.477905,815.258728 674.115356,815.986206 674.209045,819.015503 
z"/>
<path fill="#000000" opacity="1.000000" stroke="none" 
	d="
M681.738525,186.408432 
	C683.669189,188.484283 683.544434,190.321243 681.291870,191.396576 
	C679.688538,192.161987 678.300293,191.082275 677.962646,189.448944 
	C677.399048,186.723557 678.991821,185.947769 681.738525,186.408432 
z"/>
<path fill="#000000" opacity="1.000000" stroke="none" 
	d="
M389.712585,769.018188 
	C391.951385,769.933105 392.051300,771.151550 390.656769,772.518372 
	C389.183777,773.962280 387.443970,773.572693 384.812378,771.292358 
	C385.727997,769.345154 387.564056,769.192566 389.712585,769.018188 
z"/>
<path fill="#000000" opacity="1.000000" stroke="none" 
	d="
M670.418152,798.267395 
	C674.179016,798.646545 673.436462,801.006104 672.714844,802.932495 
	C672.170593,804.385376 670.472778,804.590149 669.499146,803.482849 
	C668.006897,801.785645 667.229614,799.776001 670.418152,798.267395 
z"/>
<path fill="#000000" opacity="1.000000" stroke="none" 
	d="
M682.715576,206.348969 
	C683.151184,209.205307 681.890930,210.077057 679.611755,209.585434 
	C678.193665,209.279541 677.755920,208.008438 678.240356,206.867355 
	C679.167664,204.683273 680.756653,204.491241 682.715576,206.348969 
z"/>
<path fill="#000000" opacity="1.000000" stroke="none" 
	d="
M345.775543,800.143921 
	C344.930847,798.299500 345.114227,797.162415 347.021240,797.015015 
	C348.540039,796.897644 349.553864,797.703796 349.981628,799.143127 
	C350.324005,800.294983 350.487671,801.683716 349.361237,802.329102 
	C347.490753,803.400757 346.796539,801.643433 345.775543,800.143921 
z"/>
<path fill="#000000" opacity="1.000000" stroke="none" 
	d="
M654.452026,848.953613 
	C653.859619,851.225464 652.768677,852.717224 650.626038,851.629822 
	C649.217957,850.915222 648.755798,848.898621 649.691040,847.827698 
	C651.293396,845.992981 653.117371,846.653809 654.452026,848.953613 
z"/>
<path fill="#000000" opacity="1.000000" stroke="none" 
	d="
M346.981812,821.209839 
	C344.491699,819.898132 344.375092,818.205627 345.896759,816.411255 
	C346.435181,815.776306 347.571167,815.758850 348.089600,816.393066 
	C349.559967,818.191772 349.413910,819.901306 346.981812,821.209839 
z"/>
<path fill="#000000" opacity="1.000000" stroke="none" 
	d="
M779.809814,405.786865 
	C778.900513,404.052002 778.729980,402.564819 780.530762,401.827332 
	C781.637207,401.374237 782.486572,402.179810 782.622559,403.277039 
	C782.849487,405.106934 782.654541,406.755249 779.809814,405.786865 
z"/>
<path fill="#000000" opacity="1.000000" stroke="none" 
	d="
M396.238525,704.846924 
	C368.210999,689.589966 343.797363,670.357361 324.694000,645.204956 
	C309.513672,625.217773 298.562500,602.753723 289.592438,579.259155 
	C278.631104,550.549133 275.072327,520.817749 276.927673,490.471954 
	C280.182343,437.239410 298.736755,390.010925 334.466400,349.988495 
	C361.578278,319.619202 394.384094,297.643951 433.244385,285.443024 
	C464.878693,275.510803 497.462433,272.827118 530.527222,275.420319 
	C546.665588,276.686066 562.670105,278.832306 578.056213,283.794922 
	C611.469055,294.571899 641.608704,311.148926 666.911682,335.880981 
	C692.756104,361.142395 713.357666,389.927155 725.520203,424.205109 
	C733.352234,446.278595 737.902649,469.055481 738.331482,492.565460 
	C738.681030,511.730530 738.740112,530.953857 734.639221,549.740173 
	C727.571594,582.116821 714.951172,611.993591 695.030945,638.931946 
	C657.856506,689.203491 609.060974,720.036560 547.341248,730.322876 
	C494.177917,739.183044 443.995880,730.308289 396.238525,704.846924 
M525.738647,479.260010 
	C521.716858,489.120026 517.738525,498.998047 513.663452,508.835968 
	C507.170654,524.510742 502.556213,540.945435 494.554413,556.010315 
	C493.088257,558.770691 493.290009,561.810791 493.287170,564.809448 
	C493.268158,584.791260 494.919159,604.750732 494.212616,624.733948 
	C494.040558,629.599426 495.708649,630.940186 500.480713,630.904358 
	C530.295288,630.679993 560.115112,630.472168 589.927124,630.802551 
	C613.329834,631.061890 631.640564,620.924133 645.435120,603.174927 
	C656.994507,588.301453 661.579956,570.666748 659.864502,551.583313 
	C658.267151,533.813660 651.029114,519.096252 637.507874,507.368713 
	C634.006592,504.331940 629.877075,502.217682 626.386780,499.374786 
	C626.583679,498.763855 626.595276,498.367249 626.799438,498.166840 
	C627.269775,497.705109 627.823120,497.324097 628.361145,496.935822 
	C638.377563,489.707489 645.527649,480.408356 649.439392,468.583130 
	C653.518799,456.250916 653.916748,443.692780 651.492981,431.139526 
	C646.808533,406.877869 626.890747,387.199860 602.539856,382.903595 
	C591.860901,381.019470 580.931885,382.485840 570.123901,382.062622 
	C567.746582,381.969604 566.814087,383.769043 565.876343,385.668396 
	C561.161743,395.217499 557.307495,405.183380 551.932068,414.414703 
	C551.220093,415.637451 550.204651,416.954895 551.100098,418.591583 
	C552.795105,420.104370 554.884521,419.634644 556.825500,419.645905 
	C565.653687,419.697266 574.482422,419.647491 583.310852,419.667694 
	C600.372620,419.706757 609.767212,427.136078 612.861511,443.920074 
	C615.966675,460.763336 604.346619,480.136017 584.582275,479.156128 
	C574.112183,478.636993 563.594177,479.165466 553.106140,478.896698 
	C546.590698,478.729706 540.022705,478.371399 533.370056,476.255402 
	C534.279480,474.552673 534.862061,473.377594 535.521606,472.247467 
	C536.436096,470.680511 537.049744,469.073547 535.079285,467.945007 
	C533.219666,466.879913 532.399963,468.449371 531.600464,469.722137 
	C529.746277,472.673706 527.921570,475.643738 525.738647,479.260010 
M427.581696,507.852234 
	C422.242767,494.206848 416.960388,480.539001 411.552887,466.920837 
	C401.169495,440.771423 390.694305,414.658447 380.317566,388.506409 
	C379.060364,385.337921 377.765289,383.064941 373.576202,383.400970 
	C363.459473,384.212555 353.309448,384.651245 343.165894,385.072693 
	C335.592529,385.387390 334.915070,386.302032 337.889984,393.211792 
	C338.219238,393.976593 338.598755,394.719635 338.933167,395.482300 
	C352.505341,426.435181 367.106293,456.988129 379.345154,488.459625 
	C390.810638,517.942383 402.559814,547.295044 414.584808,576.545776 
	C422.362244,595.464478 431.902802,613.635498 438.557709,633.033325 
	C438.922882,634.097717 439.481598,635.229919 441.108948,635.183105 
	C443.163086,633.851440 443.578461,631.424500 444.444183,629.342957 
	C446.808929,623.657471 448.740814,617.779541 451.318756,612.197083 
	C470.106232,571.512878 485.646118,529.465088 503.446472,488.365387 
	C517.867004,455.069397 529.839172,420.726379 546.236450,388.270355 
	C548.516235,383.757935 547.598938,382.374695 542.323975,382.334442 
	C531.659729,382.253021 520.989929,382.493805 510.331787,382.227997 
	C506.010651,382.120178 503.945099,383.629150 502.196533,387.651611 
	C488.587952,418.957550 475.583221,450.509857 463.181213,482.308014 
	C457.195435,497.655334 450.319916,512.654419 445.227417,528.356750 
	C444.127258,531.749023 443.163910,535.324341 440.604736,538.459656 
	C439.888947,537.641968 439.215637,537.118896 438.861847,536.431396 
	C434.273010,527.513855 431.615204,517.826477 427.581696,507.852234 
M323.021515,433.561584 
	C324.723663,431.740417 326.675812,430.091949 328.077484,428.063171 
	C331.299988,423.398865 329.262299,417.080933 323.809906,414.123383 
	C319.461639,411.764771 314.519745,413.529846 312.094330,418.307770 
	C310.028992,422.376373 311.043610,427.035461 315.077454,430.921387 
	C316.806793,432.587341 318.322113,434.059113 318.052490,436.810364 
	C316.732605,450.279785 317.381592,463.755493 318.261810,477.217316 
	C318.424286,479.701904 317.491608,480.661591 315.174377,481.402405 
	C301.325623,485.829834 295.525940,500.143616 301.718262,513.367065 
	C305.109650,520.609253 311.157532,523.707825 318.902863,525.322998 
	C317.207123,529.381165 317.335571,533.192261 317.405304,536.993652 
	C317.612793,548.311768 317.761169,559.632019 318.119629,570.945557 
	C318.209808,573.792236 317.724976,575.829041 315.414154,577.893066 
	C312.360413,580.620667 310.470490,584.363403 312.356049,588.626587 
	C313.895691,592.107544 316.474060,595.064087 320.525330,595.109253 
	C324.785980,595.156799 327.585693,592.191528 329.167969,588.520264 
	C330.728760,584.898743 330.404480,581.043396 327.170990,578.478333 
	C324.168488,576.096619 323.635773,573.302063 323.592346,569.786438 
	C323.423737,556.138916 324.225586,542.475281 323.030060,528.844482 
	C322.814423,526.385864 323.687805,524.801941 326.006226,523.728699 
	C334.418701,519.834839 337.732849,512.126892 338.270477,503.875092 
	C338.867981,494.703125 336.621796,486.072662 327.183136,482.440033 
	C324.086456,481.248230 323.545532,479.079437 323.627930,476.157990 
	C324.022278,462.169708 323.272034,448.202087 323.021515,433.561584 
M540.495544,322.319550 
	C538.662598,322.318878 536.817322,322.182678 534.999329,322.347137 
	C531.720581,322.643707 530.238525,321.299225 529.661011,318.003906 
	C528.260193,310.009979 520.138733,302.036560 512.340759,300.575775 
	C503.450226,298.910400 496.208282,302.014069 491.122101,310.293304 
	C486.200134,318.305176 484.715393,327.016663 489.940857,335.303253 
	C498.399933,348.717804 516.590332,349.947876 525.053345,336.744293 
	C529.851440,329.258545 534.364197,327.859161 542.434937,328.472870 
	C559.626343,329.780121 576.809753,331.904663 594.132263,331.227356 
	C596.480347,331.135559 599.120422,331.152283 601.545776,332.485107 
	C601.467834,333.822937 601.379089,335.129761 601.317627,336.437805 
	C601.009888,342.988037 603.541992,347.288208 609.417358,349.984497 
	C613.972961,352.075195 617.838989,350.275787 621.477905,347.604340 
	C624.710999,345.230835 626.347778,342.065521 625.448303,338.055023 
	C623.435913,329.083038 612.966797,320.969452 604.031128,323.861328 
	C599.571655,325.304535 594.840881,325.070557 590.191711,325.418640 
	C573.781616,326.647247 557.737366,322.735931 540.495544,322.319550 
M698.703735,558.497559 
	C698.928955,548.853149 698.526917,539.206665 699.339355,529.556335 
	C699.662964,525.712097 700.981812,523.446716 704.485535,522.032043 
	C711.183472,519.327576 714.901123,513.867981 716.906433,507.270050 
	C719.235046,499.608246 717.628113,492.321014 711.627258,487.197113 
	C705.796631,482.218597 699.013611,478.557281 690.621094,482.039764 
	C682.029602,485.604828 678.833008,492.712769 678.490417,501.043030 
	C678.015808,512.582214 683.144165,521.177612 693.981018,525.326294 
	C692.712891,540.836304 693.407227,555.973877 693.247559,571.090088 
	C693.218445,573.840698 692.783691,575.532349 690.259705,577.166077 
	C685.125732,580.489197 684.381653,585.792297 687.796509,590.509949 
	C691.389587,595.473816 696.343933,596.554565 700.619995,593.307312 
	C705.440308,589.646729 706.431824,584.113831 702.234436,579.364075 
	C699.282593,576.023865 698.450439,572.618958 698.694275,568.482117 
	C698.870178,565.497131 698.708801,562.492310 698.703735,558.497559 
M519.981750,706.571716 
	C526.383484,702.686462 528.021606,696.215271 530.091858,689.562683 
	C534.700745,674.752319 516.243896,660.718323 504.171051,663.797791 
	C495.027557,666.130066 489.381683,671.776062 487.132812,680.754395 
	C484.707184,690.438232 486.922638,699.087402 494.682068,705.530090 
	C502.335480,711.884766 510.836456,711.434937 519.981750,706.571716 
M445.499908,687.047363 
	C456.660614,686.943787 467.821503,686.855225 478.981781,686.718018 
	C480.415680,686.700378 482.302979,686.959717 482.391663,684.786438 
	C482.467743,682.922913 480.956543,682.273071 479.377289,682.086853 
	C476.903503,681.795166 474.415833,681.466919 471.931427,681.444885 
	C456.437927,681.307434 440.943573,681.264160 425.449799,681.149231 
	C423.657806,681.135925 421.774994,681.553162 419.885132,680.332642 
	C419.438416,674.178284 417.380219,668.516602 413.088165,663.756287 
	C409.626282,659.916687 405.224884,659.559875 400.677094,660.589600 
	C396.760132,661.476440 394.510895,664.517395 393.467590,668.218750 
	C391.145721,676.455872 398.339966,687.405518 407.029877,686.927307 
	C419.480316,686.242310 432.006256,686.929565 445.499908,687.047363 
M450.331329,328.698914 
	C460.106018,327.778656 469.903015,327.522369 479.716156,327.659851 
	C481.535522,327.685364 483.684875,327.830536 483.797089,325.193726 
	C483.923004,322.235535 481.622589,322.354340 479.604950,322.277924 
	C478.109283,322.221313 476.611145,322.230194 475.115662,322.170349 
	C454.351257,321.339478 433.604340,323.695892 412.805298,322.232788 
	C405.305145,321.705261 399.584991,326.404510 396.156372,333.075439 
	C394.449402,336.396606 394.396362,340.151947 396.182800,343.663635 
	C398.871490,348.949005 404.385803,351.111206 410.133728,349.178406 
	C415.278381,347.448425 419.289917,341.149750 418.479767,335.800995 
	C418.067963,333.082367 417.152557,330.423187 417.854218,327.259705 
	C428.447571,329.468567 438.925537,328.536072 450.331329,328.698914 
M553.500305,686.973755 
	C572.141907,686.863831 590.783508,686.752747 609.425110,686.644470 
	C615.281128,686.610474 620.910583,682.838257 623.154663,677.435486 
	C625.105469,672.738831 623.817261,667.468140 619.872009,663.797546 
	C616.076355,660.266235 611.575745,660.099731 607.335327,662.133667 
	C602.770996,664.323120 601.630371,668.650391 602.067932,673.575806 
	C602.267944,675.826782 603.742126,677.998535 602.599182,680.567444 
	C601.693420,680.701660 600.734985,680.960693 599.774475,680.968750 
	C581.790649,681.119629 563.806274,681.214050 545.822754,681.394409 
	C542.840088,681.424255 539.843445,681.673950 536.887451,682.074402 
	C535.432983,682.271362 533.035217,681.687683 533.074890,684.200195 
	C533.119385,687.013428 535.513916,686.950867 537.513245,686.971497 
	C542.508545,687.022949 547.504822,686.985840 553.500305,686.973755 
M704.376282,424.643494 
	C704.964478,418.154510 702.383057,413.655914 697.441589,412.558380 
	C693.759216,411.740479 688.902954,415.051300 687.115173,419.598480 
	C685.489075,423.734375 687.466370,427.962433 692.280640,430.643768 
	C696.176941,432.813843 700.369324,430.930511 704.376282,424.643494 
M694.909485,478.045959 
	C697.871765,479.481750 699.365417,478.531403 699.296509,475.262238 
	C699.131897,467.449493 698.901611,459.638092 698.741089,451.825287 
	C698.641785,446.998047 698.715210,442.165314 698.515198,437.343170 
	C698.445862,435.671448 697.719788,433.793640 695.680542,433.818451 
	C693.417175,433.845947 693.357544,435.882874 693.361023,437.543365 
	C693.388794,450.845337 692.834656,464.164825 694.909485,478.045959 
z"/>
<path fill="#000000" opacity="1.000000" stroke="none" 
	d="
M606.654846,584.712341 
	C600.311279,590.151550 593.437317,592.579651 585.286926,592.360962 
	C570.967407,591.976929 556.631165,592.071106 542.304199,592.206421 
	C538.490784,592.242432 536.799072,591.525452 536.440125,587.150085 
	C535.866455,580.158813 535.478394,573.182190 535.704346,566.198242 
	C536.130310,553.027527 534.835510,539.909790 534.763306,526.755798 
	C534.739075,522.349304 536.171753,520.550232 540.849304,520.585632 
	C556.153503,520.701294 571.460571,520.372803 586.766846,520.317871 
	C608.367859,520.240417 624.432007,542.500977 618.831360,564.651245 
	C616.856873,572.460449 612.905212,579.076843 606.654846,584.712341 
z"/>
</svg>